<?xml version="1.0" encoding="utf-8"?>

<svg version="1.1" id="Layer_1" xmlns="http://www.w3.org/2000/svg" xmlns:xlink="http://www.w3.org/1999/xlink" x="0px" y="0px" viewBox="0 0 288 288" style="enable-background:new 0 0 288 288;" xml:space="preserve">

<g>
&#x9;<path d="M73.9,176.3c-2.7,1.6-6,1.7-10.1,1.7c-0.5,0-1.1-0.1-1.6-0.1c-6.4,0-10.2,0-11.8,0v-0.8c5.2-0.5,6.3-1.7,6.3-6.5v-18.1&#xA;&#x9;&#x9;c0-4.5-0.5-6-5.5-6.4v-0.9c5.2,0,8.5,0,10.2,0c9.6,0,14.4,2,14.4,7.5c0,4.1-2.5,6.4-8,7.7v0.3c6.8,1.6,10.1,4.4,10.1,8.9&#xA;&#x9;&#x9;C77.9,172.3,76.4,174.7,73.9,176.3z M61,146.1v14.5c6.8-0.1,10.2-2.5,10.2-7.1C71.3,149.1,67.5,146.2,61,146.1z M62.6,161.5&#xA;&#x9;&#x9;c-0.5,0-1.1,0-1.6,0.1v8.9c0,4.3,0.4,6.3,4.8,6.3c4.3,0,7.1-2.7,7.1-6.7C72.8,165.1,69,161.5,62.6,161.5z M105.3,177.8&#xA;&#x9;&#x9;c-2.3,0-4.7,0.1-6.9,0.1v-0.8c2.4-0.1,3.7-1.3,3.7-2.7c0-0.8-0.3-1.9-0.7-3.2l-2.5-7.1H87.8L87,167c-1.2,3.5-1.9,5.7-1.9,7.2&#xA;&#x9;&#x9;c0,2,1.7,2.8,5.3,2.9v0.8c-2.4,0-4.7-0.1-6.9-0.1c-2.1,0-4.3,0.1-6.3,0.1v-0.8c1.9-0.3,3.2-0.8,4.1-1.9c1.2-1.2,2.8-6.1,5.9-14.4&#xA;&#x9;&#x9;l5.5-14.1l-0.3-0.9c1.3-0.4,2.4-1.3,3.3-2.7l10.4,28.1c1.5,3.9,2.7,5.7,6.3,5.9v0.8C110,177.9,107.7,177.8,105.3,177.8z&#xA;&#x9;&#x9; M93.2,149.3l-4.7,12.9h9.6L93.2,149.3z M103.3,202.4c-1.3,0.5-2.8,0.9-4.3,0.9c-2,0-3.9-0.7-5.3-1.7c-1.7-1.3-2.5-3.2-2.5-5.5&#xA;&#x9;&#x9;c0-2.3,0.9-4.1,2.5-5.5c1.5-1.2,3.3-1.9,5.6-1.9c1.6,0,3.1,0.4,4.5,1.1v3.3h-0.4c-0.4-2.5-1.9-3.9-4.3-3.9c-3.3,0-5.7,2.7-5.7,6.7&#xA;&#x9;&#x9;c0,1.9,0.8,3.6,2,4.9c1.1,1.2,2.5,1.7,4.1,1.7c2.1,0,3.5-1.2,4.7-4l0.3,0.1C104.3,200.1,103.9,201.3,103.3,202.4z M115,203.2&#xA;&#x9;&#x9;c-4.5,0-7.5-2.8-7.5-7.2c0-4.3,2.9-7.1,7.6-7.1c4.4,0,7.3,2.8,7.3,7.2C122.5,200.4,119.6,203.2,115,203.2z M132.7,176.3&#xA;&#x9;&#x9;c-2.7,1.6-5.9,1.7-10.1,1.7c-0.4,0-1.1-0.1-1.6-0.1c-6.3,0-4,0-5.5,0c0,0,0-2.5,0-7.3v-18.1c0-4.5-0.5-6-5.6-6.4v-0.9&#xA;&#x9;&#x9;c5.2,0,8.6,0,10.2,0c9.7,0,14.5,2,14.5,7.5c0,4.1-2.5,6.4-8.1,7.7v0.3c6.9,1.6,10.2,4.4,10.2,8.9&#xA;&#x9;&#x9;C136.9,172.3,135.4,174.7,132.7,176.3z M118.9,191.9c-1.1-1.6-2.3-2.4-4-2.4c-2.9,0-4.9,2.4-4.9,6.3c0,4.1,2.3,6.9,5.2,6.9&#xA;&#x9;&#x9;c2.9,0,5.1-2.4,5.1-6.3C120.2,194.7,119.7,192.9,118.9,191.9z M120,146.1v14.5c6.8-0.1,10.1-2.5,10.1-7.1&#xA;&#x9;&#x9;C130.1,149.1,126.5,146.2,120,146.1z M121.6,161.5c-0.5,0-1.1,0-1.6,0.1v8.9c0,4.3,0.4,6.3,4.8,6.3c4.3,0,7.1-2.7,7.1-6.7&#xA;&#x9;&#x9;C131.8,165.1,127.9,161.5,121.6,161.5z M136.1,202.9c-1.7,0-3.7,0-6,0c-1.7,0-3.5,0-5.5,0v-0.3c2.4-0.3,2.7-1.1,2.7-3.5v-6.7&#xA;&#x9;&#x9;c0-2.1-0.3-2.8-2.7-3.1v-0.4c1.2,0.1,2.3,0.1,3.5,0.1s2.3,0,3.5-0.1v0.4c-2.1,0.1-2.5,0.9-2.5,3.1v6.7c0,1.3,0,2.3,0.3,2.8&#xA;&#x9;&#x9;c0.3,0.4,0.9,0.4,2.4,0.4c1.2,0,2.3,0,3.1-0.5c0.8-0.5,1.5-1.5,2.1-2.8l0.3,0.1L136.1,202.9z M150.6,202.9c-1.7,0-3.7,0-6.1,0&#xA;&#x9;&#x9;c-1.6,0-3.3,0-5.3,0v-0.3c2.4-0.3,2.5-1.1,2.5-3.5v-6.7c0-2.1-0.3-2.8-2.5-3.1v-0.4c1.2,0.1,2.3,0.1,3.5,0.1c1.1,0,2.3,0,3.5-0.1&#xA;&#x9;&#x9;v0.4c-2.3,0.1-2.5,0.9-2.5,3.1v6.7c0,1.3,0,2.3,0.3,2.8c0.1,0.4,0.9,0.4,2.3,0.4c1.3,0,2.4,0,3.2-0.5c0.8-0.5,1.5-1.5,2.1-2.8&#xA;&#x9;&#x9;l0.3,0.1L150.6,202.9z M150.3,178.8c-3.3,0-6.5-0.9-9-2.5c-0.5-2.7-0.4-5.3-0.7-8.1l0.9-0.1c1.6,6.1,4.7,9.2,9.3,9.2&#xA;&#x9;&#x9;c3.7,0,6.3-2.5,6.3-5.7c0-2.8-1.7-5.3-5.1-7.1l-3.9-2.3c-4.1-2.3-6-5.2-6-8.6c0-5.1,4-9,10.1-9c2.8,0,6,0.8,8.4,2.1&#xA;&#x9;&#x9;c-0.3,2.1-0.1,4.5-0.3,7.2h-0.8c-0.7-5.3-4.1-8-7.9-8c-3.3,0-5.5,2.3-5.5,5.6c0,2.3,1.5,4.7,4.1,6.3l5.9,3.2&#xA;&#x9;&#x9;c3.7,2.1,5.5,4.9,5.5,8.5C161.7,174.7,156.8,178.8,150.3,178.8z M164.8,203c-1.9-0.1-4-0.1-6.7-0.1c-1.5,0-2.9,0-4.7,0v-0.3&#xA;&#x9;&#x9;c2.4-0.4,2.7-0.9,2.7-2.8v-7.6c0-2-0.4-2.7-2.4-2.8v-0.4c1.9,0.1,3.6,0.1,5.2,0.1c2,0,3.9,0,5.6-0.1c-0.1,1.1-0.3,2.1-0.3,3.2H164&#xA;&#x9;&#x9;c-0.1-2-1.1-2.7-3.5-2.7H158v5.7h2c2,0,2.8-0.3,3.1-1.9h0.3c0,1.1,0,2.3,0,3.5c0,0.4,0,0.8,0,1.2h-0.4c-0.1-1.5-0.9-1.9-2.9-1.9h-2&#xA;&#x9;&#x9;v3.5c0,2.1,0.5,2.7,3.2,2.7c2.4,0,3.6-1.1,4.1-3.5h0.3C165.6,200.4,165.3,201.8,164.8,203z M183,178.6c-10.5,0-17.6-6.8-17.6-17.2&#xA;&#x9;&#x9;c0-10.1,7.1-16.8,17.8-16.8c10.6,0,17.6,6.9,17.6,17.2C200.9,171.8,193.8,178.6,183,178.6z M181.2,199v2.4h0.9v0.3&#xA;&#x9;&#x9;c-2.1,1.1-4.1,1.5-6,1.5c-4.8,0-7.9-2.8-7.9-6.9c0-2.1,0.8-4,2.4-5.3c1.5-1.3,3.5-2.1,5.7-2.1c1.6,0,3.3,0.4,4.9,0.9&#xA;&#x9;&#x9;c-0.1,1.2-0.1,2.3-0.1,3.5h-0.3c-0.7-2.5-2.3-3.9-4.7-3.9c-3.5,0-5.7,2.5-5.7,6.3c0,1.9,0.7,3.6,1.9,4.8c1.3,1.5,3.2,2.1,5.2,2.1&#xA;&#x9;&#x9;c1.5,0,1.7-0.3,1.7-1.6V199c0-1.6-0.8-2.1-2.7-2.3v-0.4c1.1,0.1,2,0.1,3.1,0.1c0.9,0,2,0,2.9-0.1v0.4&#xA;&#x9;&#x9;C181.3,196.9,181.2,197.4,181.2,199z M192.3,151.5c-2.5-3.7-5.5-5.6-9.6-5.6c-6.8,0-11.7,5.7-11.7,14.8c0,9.8,5.3,16.4,12.4,16.4&#xA;&#x9;&#x9;c7.1,0,11.8-5.7,11.8-14.9C195.3,158.2,194.2,154.3,192.3,151.5z M196.2,203c-1.9-0.1-4-0.1-6.7-0.1c-1.5,0-2.9,0-4.7,0v-0.3&#xA;&#x9;&#x9;c2.4-0.4,2.7-0.9,2.7-2.8v-7.6c0-2-0.4-2.7-2.4-2.8v-0.4c1.9,0.1,3.6,0.1,5.2,0.1c2,0,3.9,0,5.6-0.1c-0.1,1.1-0.3,2.1-0.3,3.2h-0.3&#xA;&#x9;&#x9;c-0.1-2-1.1-2.7-3.5-2.7h-2.5v5.7h2c2,0,2.8-0.3,3.1-1.9h0.3c0,1.1,0,2.3,0,3.5c0,0.4,0,0.8,0,1.2h-0.4c-0.1-1.5-0.9-1.9-2.9-1.9&#xA;&#x9;&#x9;h-2v3.5c0,2.1,0.5,2.7,3.2,2.7c2.4,0,3.6-1.1,4.1-3.5h0.3C197,200.4,196.7,201.8,196.2,203z M237.9,146.1c-3.6,0-4.5,3.6-4.5,11.8&#xA;&#x9;&#x9;v10c0,3.9,0.1,7.6,0.3,11.2h-0.3c-2.9-3.2-4.5-5.1-4.9-5.6l-19.8-21v7.7c0,0.5,0,1.1,0,1.6c0,6.5,0,10.8,1.2,12.6&#xA;&#x9;&#x9;c0.8,1.3,2.7,2.1,5.6,2.7v0.8c-2.4,0-4.9-0.1-7.3-0.1c-2.4,0-4.9,0.1-7.3,0.1v-0.8c5.5-0.3,6.3-3.3,6.3-11.4v-8.9&#xA;&#x9;&#x9;c0-1.2,0-2.3,0-3.2c0-2.3-0.1-4-1.9-5.6c-1.2-1.1-2.9-1.7-4.9-1.9v-0.9c1.5,0,2.9,0.1,4.3,0.1s2.7-0.1,3.9-0.1l23.6,25.1v-10.8&#xA;&#x9;&#x9;c0-5.9-0.1-9.6-1.6-11.4c-0.9-1.2-2.7-1.9-5.2-2v-0.9c2.3,0.1,4.7,0.1,6.8,0.1c2.3,0,4.4,0,6.4-0.1v0.9&#xA;&#x9;&#x9;C238.1,146.1,238,146.1,237.9,146.1z"></path>
</g>
<g>
&#x9;<path class="st0" d="M144.4,134.8c-14.4,0-26.1-11.2-26.1-25s11.7-25.2,26.1-25.2c14.2,0,25.9,11.3,25.9,25.2&#xA;&#x9;&#x9;S158.7,134.8,144.4,134.8z M151.2,107c5.5-1.7,9.7-5.5,9.7-10.2c0-7.7-10.1-11.3-16.6-11.3c-6.5,0.1-16.6,3.5-16.6,11.2&#xA;&#x9;&#x9;c0,0.7,0.1,1.3,0.3,2c2.4-3.6,5.6-6.4,9.2-8c-0.1,0.1-0.1,0.4-0.1,0.5c-3.9,2-6.7,5.2-8.5,8.8c0.9,2.3,2.9,4.3,5.5,5.6&#xA;&#x9;&#x9;c0.9-4.1,2.7-8.3,4.5-11.3c0.1,0.1,0.1,0.1,0.3,0.3c-1.5,3.2-2.8,7.5-3.6,11.7c0.5,0.3,1.2,0.5,1.9,0.7c0.8,0.3,1.6,0.5,2.3,0.7&#xA;&#x9;&#x9;v0.5c-1.5-0.1-2.9-0.5-4.3-1.1c-0.4,1.9-0.5,3.7-0.7,5.5c0,1.9,0,3.9,0.1,5.7c0.5,0.3,1.1,0.4,1.5,0.5c1.1,0.3,2.3,0.5,3.3,0.7v0.7&#xA;&#x9;&#x9;c-1.7-0.3-3.2-0.5-4.7-0.9c0.3,4.3,1.1,8.5,2.3,11.7h-0.1c-1.6-3.3-2.9-7.7-3.5-12c-1.1-0.4-2.3-0.8-3.3-1.3&#xA;&#x9;&#x9;c-1.9-0.8-3.5-1.6-4.8-2.7c0.1,3.9,1.2,7.6,2.9,10.8l-0.4-0.3c-2.4-3.7-3.9-7.9-4.1-11.8c-1.3-1.3-2.4-2.8-3.2-4.4&#xA;&#x9;&#x9;c0,0.1,0,0.4,0,0.5c0,13.8,10.1,24.2,24.1,24.2c7.5,0,20-4.8,20-14C164.4,112.7,156.9,108.2,151.2,107z M125.7,97.3&#xA;&#x9;&#x9;c-0.1-1.3,0.1-2.4,0.5-3.5c-0.9,1.2-1.7,2.3-2.7,3.9c-1.2,2-2.1,4.5-2.3,6.9c0,1.9,0.8,3.3,1.7,5.1c0.1,0.4,0.4,0.7,0.7,1.1&#xA;&#x9;&#x9;c0.3-3.5,1.3-6.9,2.9-10C126.1,99.6,125.8,98.6,125.7,97.3z M129.1,103.6c-0.7-0.5-1.2-1.2-1.6-1.7c-1.5,3.3-2.3,6.9-2.4,10.6&#xA;&#x9;&#x9;c2.3,2.4,5.2,4.1,8,5.2c-0.3-1.9-0.4-3.6-0.3-5.3c0-1.9,0.4-4,0.8-6C132,105.8,130.4,104.8,129.1,103.6z M144.3,106V95.8&#xA;&#x9;&#x9;c0.4,0,0.7,0,0.9-0.1c0.4-0.1,0.8-0.3,1.2-0.4c0,0,1.1-0.5,0.9-0.8c-0.1-0.1-0.9,0.1-1.1,0.1c-0.8,0.3-1.5,0.4-2,0.4&#xA;&#x9;&#x9;c-2,0-6-1.1-6-3.9c0-3.5,4.5-3.7,6-3.7c5.2,0,9.7,4.1,9.7,9.3C154,102.3,148.3,106,144.3,106z M144.3,131.8V108&#xA;&#x9;&#x9;c6.4,0.3,13,4.8,13,11.8C157.3,126.9,150.7,131.3,144.3,131.8z"></path>
</g>
</svg>