<?xml version="1.0" encoding="utf-8"?>

<svg version="1.1" id="Layer_1" xmlns="http://www.w3.org/2000/svg" xmlns:xlink="http://www.w3.org/1999/xlink" x="0px" y="0px" viewBox="0 0 188.7 119.2" style="enable-background:new 0 0 188.7 119.2;" xml:space="preserve">

<g>
&#x9;<path class="st0" d="M23.7,92.1c-2.7,1.6-6,1.7-10.1,1.7c-0.5,0-1.1-0.1-1.6-0.1c-6.4,0-10.2,0-11.8,0v-0.8&#xA;&#x9;&#x9;c5.2-0.5,6.3-1.7,6.3-6.5V68.3c0-4.5-0.5-6-5.5-6.4V61c5.2,0,8.5,0,10.2,0c9.6,0,14.4,2,14.4,7.5c0,4.1-2.5,6.4-8,7.7v0.3&#xA;&#x9;&#x9;c6.8,1.6,10.1,4.4,10.1,8.9C27.7,88.1,26.2,90.5,23.7,92.1z M10.8,61.9v14.5c6.8-0.1,10.2-2.5,10.2-7.1&#xA;&#x9;&#x9;C21.1,64.9,17.3,62,10.8,61.9z M12.4,77.3c-0.5,0-1.1,0-1.6,0.1v8.9c0,4.3,0.4,6.3,4.8,6.3c4.3,0,7.1-2.7,7.1-6.7&#xA;&#x9;&#x9;C22.6,80.9,18.8,77.3,12.4,77.3z M55.1,93.6c-2.3,0-4.7,0.1-6.9,0.1v-0.8c2.4-0.1,3.7-1.3,3.7-2.7c0-0.8-0.3-1.9-0.7-3.2l-2.5-7.1&#xA;&#x9;&#x9;H37.6l-0.8,2.9c-1.2,3.5-1.9,5.7-1.9,7.2c0,2,1.7,2.8,5.3,2.9v0.8c-2.4,0-4.7-0.1-6.9-0.1c-2.1,0-4.3,0.1-6.3,0.1v-0.8&#xA;&#x9;&#x9;c1.9-0.3,3.2-0.8,4.1-1.9c1.2-1.2,2.8-6.1,5.9-14.4l5.5-14.1l-0.3-0.9c1.3-0.4,2.4-1.3,3.3-2.7L55.9,87c1.5,3.9,2.7,5.7,6.3,5.9&#xA;&#x9;&#x9;v0.8C59.8,93.7,57.5,93.6,55.1,93.6z M43,65.1L38.3,78h9.6L43,65.1z M53.1,118.2c-1.3,0.5-2.8,0.9-4.3,0.9c-2,0-3.9-0.7-5.3-1.7&#xA;&#x9;&#x9;c-1.7-1.3-2.5-3.2-2.5-5.5s0.9-4.1,2.5-5.5c1.5-1.2,3.3-1.9,5.6-1.9c1.6,0,3.1,0.4,4.5,1.1v3.3h-0.4c-0.4-2.5-1.9-3.9-4.3-3.9&#xA;&#x9;&#x9;c-3.3,0-5.7,2.7-5.7,6.7c0,1.9,0.8,3.6,2,4.9c1.1,1.2,2.5,1.7,4.1,1.7c2.1,0,3.5-1.2,4.7-4l0.3,0.1&#xA;&#x9;&#x9;C54.1,115.9,53.7,117.1,53.1,118.2z M64.8,119c-4.5,0-7.5-2.8-7.5-7.2c0-4.3,2.9-7.1,7.6-7.1c4.4,0,7.3,2.8,7.3,7.2&#xA;&#x9;&#x9;C72.3,116.2,69.4,119,64.8,119z M82.5,92.1c-2.7,1.6-5.9,1.7-10.1,1.7c-0.4,0-1.1-0.1-1.6-0.1c-6.3,0-4,0-5.5,0c0,0,0-2.5,0-7.3&#xA;&#x9;&#x9;V68.3c0-4.5-0.5-6-5.6-6.4V61c5.2,0,8.6,0,10.2,0c9.7,0,14.5,2,14.5,7.5c0,4.1-2.5,6.4-8.1,7.7v0.3c6.9,1.6,10.2,4.4,10.2,8.9&#xA;&#x9;&#x9;C86.7,88.1,85.2,90.5,82.5,92.1z M68.7,107.7c-1.1-1.6-2.3-2.4-4-2.4c-2.9,0-4.9,2.4-4.9,6.3c0,4.1,2.3,6.9,5.2,6.9&#xA;&#x9;&#x9;c2.9,0,5.1-2.4,5.1-6.3C70,110.5,69.5,108.7,68.7,107.7z M69.8,61.9v14.5c6.8-0.1,10.1-2.5,10.1-7.1C79.9,64.9,76.3,62,69.8,61.9z&#xA;&#x9;&#x9; M71.4,77.3c-0.5,0-1.1,0-1.6,0.1v8.9c0,4.3,0.4,6.3,4.8,6.3c4.3,0,7.1-2.7,7.1-6.7C81.6,80.9,77.7,77.3,71.4,77.3z M85.9,118.7&#xA;&#x9;&#x9;c-1.7,0-3.7,0-6,0c-1.7,0-3.5,0-5.5,0v-0.3c2.4-0.3,2.7-1.1,2.7-3.5v-6.7c0-2.1-0.3-2.8-2.7-3.1v-0.4c1.2,0.1,2.3,0.1,3.5,0.1&#xA;&#x9;&#x9;s2.3,0,3.5-0.1v0.4c-2.1,0.1-2.5,0.9-2.5,3.1v6.7c0,1.3,0,2.3,0.3,2.8c0.3,0.4,0.9,0.4,2.4,0.4c1.2,0,2.3,0,3.1-0.5&#xA;&#x9;&#x9;s1.5-1.5,2.1-2.8l0.3,0.1L85.9,118.7z M100.4,118.7c-1.7,0-3.7,0-6.1,0c-1.6,0-3.3,0-5.3,0v-0.3c2.4-0.3,2.5-1.1,2.5-3.5v-6.7&#xA;&#x9;&#x9;c0-2.1-0.3-2.8-2.5-3.1v-0.4c1.2,0.1,2.3,0.1,3.5,0.1c1.1,0,2.3,0,3.5-0.1v0.4c-2.3,0.1-2.5,0.9-2.5,3.1v6.7c0,1.3,0,2.3,0.3,2.8&#xA;&#x9;&#x9;c0.1,0.4,0.9,0.4,2.3,0.4c1.3,0,2.4,0,3.2-0.5s1.5-1.5,2.1-2.8l0.3,0.1L100.4,118.7z M100.1,94.6c-3.3,0-6.5-0.9-9-2.5&#xA;&#x9;&#x9;c-0.5-2.7-0.4-5.3-0.7-8.1l0.9-0.1c1.6,6.1,4.7,9.2,9.3,9.2c3.7,0,6.3-2.5,6.3-5.7c0-2.8-1.7-5.3-5.1-7.1L97.9,78&#xA;&#x9;&#x9;c-4.1-2.3-6-5.2-6-8.6c0-5.1,4-9,10.1-9c2.8,0,6,0.8,8.4,2.1c-0.3,2.1-0.1,4.5-0.3,7.2h-0.8c-0.7-5.3-4.1-8-7.9-8&#xA;&#x9;&#x9;c-3.3,0-5.5,2.3-5.5,5.6c0,2.3,1.5,4.7,4.1,6.3l5.9,3.2c3.7,2.1,5.5,4.9,5.5,8.5C111.5,90.5,106.6,94.6,100.1,94.6z M114.6,118.8&#xA;&#x9;&#x9;c-1.9-0.1-4-0.1-6.7-0.1c-1.5,0-2.9,0-4.7,0v-0.3c2.4-0.4,2.7-0.9,2.7-2.8V108c0-2-0.4-2.7-2.4-2.8v-0.4c1.9,0.1,3.6,0.1,5.2,0.1&#xA;&#x9;&#x9;c2,0,3.9,0,5.6-0.1c-0.1,1.1-0.3,2.1-0.3,3.2h-0.2c-0.1-2-1.1-2.7-3.5-2.7h-2.5v5.7h2c2,0,2.8-0.3,3.1-1.9h0.3c0,1.1,0,2.3,0,3.5&#xA;&#x9;&#x9;c0,0.4,0,0.8,0,1.2h-0.4c-0.1-1.5-0.9-1.9-2.9-1.9h-2v3.5c0,2.1,0.5,2.7,3.2,2.7c2.4,0,3.6-1.1,4.1-3.5h0.3&#xA;&#x9;&#x9;C115.4,116.2,115.1,117.6,114.6,118.8z M132.8,94.4c-10.5,0-17.6-6.8-17.6-17.2c0-10.1,7.1-16.8,17.8-16.8&#xA;&#x9;&#x9;c10.6,0,17.6,6.9,17.6,17.2C150.7,87.6,143.6,94.4,132.8,94.4z M131,114.8v2.4h0.9v0.3c-2.1,1.1-4.1,1.5-6,1.5&#xA;&#x9;&#x9;c-4.8,0-7.9-2.8-7.9-6.9c0-2.1,0.8-4,2.4-5.3c1.5-1.3,3.5-2.1,5.7-2.1c1.6,0,3.3,0.4,4.9,0.9c-0.1,1.2-0.1,2.3-0.1,3.5h-0.3&#xA;&#x9;&#x9;c-0.7-2.5-2.3-3.9-4.7-3.9c-3.5,0-5.7,2.5-5.7,6.3c0,1.9,0.7,3.6,1.9,4.8c1.3,1.5,3.2,2.1,5.2,2.1c1.5,0,1.7-0.3,1.7-1.6v-2&#xA;&#x9;&#x9;c0-1.6-0.8-2.1-2.7-2.3v-0.4c1.1,0.1,2,0.1,3.1,0.1c0.9,0,2,0,2.9-0.1v0.4C131.1,112.7,131,113.2,131,114.8z M142.1,67.3&#xA;&#x9;&#x9;c-2.5-3.7-5.5-5.6-9.6-5.6c-6.8,0-11.7,5.7-11.7,14.8c0,9.8,5.3,16.4,12.4,16.4c7.1,0,11.8-5.7,11.8-14.9&#xA;&#x9;&#x9;C145.1,74,144,70.1,142.1,67.3z M146,118.8c-1.9-0.1-4-0.1-6.7-0.1c-1.5,0-2.9,0-4.7,0v-0.3c2.4-0.4,2.7-0.9,2.7-2.8V108&#xA;&#x9;&#x9;c0-2-0.4-2.7-2.4-2.8v-0.4c1.9,0.1,3.6,0.1,5.2,0.1c2,0,3.9,0,5.6-0.1c-0.1,1.1-0.3,2.1-0.3,3.2h-0.3c-0.1-2-1.1-2.7-3.5-2.7h-2.5&#xA;&#x9;&#x9;v5.7h2c2,0,2.8-0.3,3.1-1.9h0.3c0,1.1,0,2.3,0,3.5c0,0.4,0,0.8,0,1.2h-0.4c-0.1-1.5-0.9-1.9-2.9-1.9h-2v3.5c0,2.1,0.5,2.7,3.2,2.7&#xA;&#x9;&#x9;c2.4,0,3.6-1.1,4.1-3.5h0.3C146.8,116.2,146.5,117.6,146,118.8z M187.7,61.9c-3.6,0-4.5,3.6-4.5,11.8v10c0,3.9,0.1,7.6,0.3,11.2&#xA;&#x9;&#x9;h-0.3c-2.9-3.2-4.5-5.1-4.9-5.6l-19.8-21V76c0,0.5,0,1.1,0,1.6c0,6.5,0,10.8,1.2,12.6c0.8,1.3,2.7,2.1,5.6,2.7v0.8&#xA;&#x9;&#x9;c-2.4,0-4.9-0.1-7.3-0.1c-2.4,0-4.9,0.1-7.3,0.1v-0.8c5.5-0.3,6.3-3.3,6.3-11.4v-8.9c0-1.2,0-2.3,0-3.2c0-2.3-0.1-4-1.9-5.6&#xA;&#x9;&#x9;c-1.2-1.1-2.9-1.7-4.9-1.9V61c1.5,0,2.9,0.1,4.3,0.1s2.7-0.1,3.9-0.1L182,86.1V75.3c0-5.9-0.1-9.6-1.6-11.4c-0.9-1.2-2.7-1.9-5.2-2&#xA;&#x9;&#x9;V61c2.3,0.1,4.7,0.1,6.8,0.1c2.3,0,4.4,0,6.4-0.1v0.9C187.9,61.9,187.8,61.9,187.7,61.9z"></path>
</g>
<g>
&#x9;<path class="st0" d="M94.2,50.6c-14.4,0-26.1-11.2-26.1-25S79.8,0.4,94.2,0.4c14.2,0,25.9,11.3,25.9,25.2S108.5,50.6,94.2,50.6z&#xA;&#x9;&#x9; M101,22.8c5.5-1.7,9.7-5.5,9.7-10.2c0-7.7-10.1-11.3-16.6-11.3c-6.5,0.1-16.6,3.5-16.6,11.2c0,0.7,0.1,1.3,0.3,2&#xA;&#x9;&#x9;c2.4-3.6,5.6-6.4,9.2-8c-0.1,0.1-0.1,0.4-0.1,0.5c-3.9,2-6.7,5.2-8.5,8.8c0.9,2.3,2.9,4.3,5.5,5.6c0.9-4.1,2.7-8.3,4.5-11.3&#xA;&#x9;&#x9;c0.1,0.1,0.1,0.1,0.3,0.3c-1.5,3.2-2.8,7.5-3.6,11.7c0.5,0.3,1.2,0.5,1.9,0.7c0.8,0.3,1.6,0.5,2.3,0.7V24c-1.5-0.1-2.9-0.5-4.3-1.1&#xA;&#x9;&#x9;c-0.4,1.9-0.5,3.7-0.7,5.5c0,1.9,0,3.9,0.1,5.7c0.5,0.3,1.1,0.4,1.5,0.5c1.1,0.3,2.3,0.5,3.3,0.7V36c-1.7-0.3-3.2-0.5-4.7-0.9&#xA;&#x9;&#x9;c0.3,4.3,1.1,8.5,2.3,11.7h-0.1c-1.6-3.3-2.9-7.7-3.5-12c-1.1-0.4-2.3-0.8-3.3-1.3c-1.9-0.8-3.5-1.6-4.8-2.7&#xA;&#x9;&#x9;c0.1,3.9,1.2,7.6,2.9,10.8l-0.4-0.3c-2.4-3.7-3.9-7.9-4.1-11.8c-1.3-1.3-2.4-2.8-3.2-4.4c0,0.1,0,0.4,0,0.5&#xA;&#x9;&#x9;c0,13.8,10.1,24.2,24.1,24.2c7.5,0,20-4.8,20-14C114.2,28.5,106.7,24,101,22.8z M75.5,13.1c-0.1-1.3,0.1-2.4,0.5-3.5&#xA;&#x9;&#x9;c-0.9,1.2-1.7,2.3-2.7,3.9c-1.2,2-2.1,4.5-2.3,6.9c0,1.9,0.8,3.3,1.7,5.1c0.1,0.4,0.4,0.7,0.7,1.1c0.3-3.5,1.3-6.9,2.9-10&#xA;&#x9;&#x9;C75.9,15.4,75.6,14.4,75.5,13.1z M78.9,19.4c-0.7-0.5-1.2-1.2-1.6-1.7c-1.5,3.3-2.3,6.9-2.4,10.6c2.3,2.4,5.2,4.1,8,5.2&#xA;&#x9;&#x9;c-0.3-1.9-0.4-3.6-0.3-5.3c0-1.9,0.4-4,0.8-6C81.8,21.6,80.2,20.6,78.9,19.4z M94.1,21.8V11.6c0.4,0,0.7,0,0.9-0.1&#xA;&#x9;&#x9;c0.4-0.1,0.8-0.3,1.2-0.4c0,0,1.1-0.5,0.9-0.8c-0.1-0.1-0.9,0.1-1.1,0.1c-0.8,0.3-1.5,0.4-2,0.4c-2,0-6-1.1-6-3.9&#xA;&#x9;&#x9;c0-3.5,4.5-3.7,6-3.7c5.2,0,9.7,4.1,9.7,9.3C103.8,18.1,98.1,21.8,94.1,21.8z M94.1,47.6V23.8c6.4,0.3,13,4.8,13,11.8&#xA;&#x9;&#x9;C107.1,42.7,100.5,47.1,94.1,47.6z"></path>
</g>
</svg>