<svg viewBox="0 0 92 92" xmlns="http://www.w3.org/2000/svg" xmlns:xlink="http://www.w3.org/1999/xlink" id="Icons" overflow="hidden"><defs></defs><circle cx="46.01" cy="46.08" r="45.66" fill="#005D48"></circle><path d="M47.53 50.56 43.36 50.56 43.36 30.28 43.36 30.28 44.98 30.35 47.53 50.56Z" fill="#FFFFFF"></path><path d="M43.36 50.56 43.36 46.38 59.97 49.31 60.05 50.56 60.05 50.56 43.36 50.56Z" fill="#FFFFFF"></path><path d="M61.4 61.55 65.19 66.17C67.4377 64.0937 69.3414 61.6735 70.83 59L65.3 56.62C64.2347 58.4361 62.9222 60.0953 61.4 61.55Z" fill="#FFFFFF"></path><path d="M54.08 66.26 56.23 71.82C58.6109 70.8821 60.8544 69.6274 62.9 68.09L59.12 63.47C57.5654 64.6104 55.8717 65.5479 54.08 66.26Z" fill="#FFFFFF"></path><path d="M71.75 34.8 67.75 18.4 63.54 22.82C51.1802 12.9584 33.1662 14.9835 23.3045 27.3433 13.4429 39.7031 15.468 57.7171 27.8278 67.5788 35.022 73.3189 44.537 75.2504 53.4 72.77L51.24 67.18C39.1013 70.2475 26.7742 62.8937 23.7068 50.755 20.6393 38.6163 27.993 26.2893 40.1318 23.2218 46.8347 21.528 53.9442 22.9854 59.44 27.18L54.76 32.09Z" fill="#FFFFFF"></path><path d="M74.37 45.19C74.3682 42.9335 74.1031 40.685 73.58 38.49L67.78 39.88C68.1917 41.62 68.3997 43.402 68.4 45.19 68.4 45.39 68.4 45.59 68.4 45.79L74.4 45.79C74.36 45.59 74.37 45.39 74.37 45.19Z" fill="#FFFFFF"></path><path d="M68.12 48.77C67.8397 50.5667 67.3428 52.3228 66.64 54L72.13 56.33C73.1397 53.9308 73.8128 51.4036 74.13 48.82Z" fill="#FFFFFF"></path></svg>