<svg viewBox="0 0 92 92" xmlns="http://www.w3.org/2000/svg" xmlns:xlink="http://www.w3.org/1999/xlink" id="Icons" overflow="hidden"><defs></defs><circle cx="45.92" cy="46" r="45.66" fill="#005D48"></circle><path d="M68.42 58C56.82 49.21 47.26 58 47.26 58L47.11 33.52C59.19 23.12 68.42 33.52 68.42 33.52ZM44.55 57.58C44.55 57.58 35 48.78 23.4 57.58L23.4 33.09C23.4 33.09 32.63 22.69 44.71 33.09ZM45.92 30.42C45.92 30.42 34.36 15.85 19.25 30.42L19.45 64.71C19.45 64.71 31.45 52.39 45.92 64.71 60.44 52.39 72.4 64.71 72.4 64.71L72.59 30.42C57.48 15.85 45.92 30.42 45.92 30.42" fill="#FFFFFF"></path></svg>