<svg viewBox="0 0 92 92" xmlns="http://www.w3.org/2000/svg" xmlns:xlink="http://www.w3.org/1999/xlink" id="Icons" overflow="hidden"><defs></defs><circle cx="45.99" cy="45.86" r="45.66" fill="#005D48"></circle><path d="M66.42 70C67.6019 71.1819 69.5181 71.1819 70.7 70 71.8819 68.8181 71.8819 66.9019 70.7 65.72L44.06 39.06C45.5 35.52 44.46 30.9 41.13 27.57 34.71 21.16 26.63 18.83 23.13 22.38 19.63 25.93 21.91 34 28.33 40.38 31.65 43.7 36.27 44.75 39.82 43.3Z" fill="#FFFFFF"></path><path d="M22.87 66.89C21.6881 68.0719 21.6881 69.9881 22.87 71.17 24.0519 72.3519 25.9681 72.3519 27.15 71.17L45.65 52.87 41.37 48.59Z" fill="#FFFFFF"></path><path d="M56.69 41.63C58.0408 42.9791 60.2291 42.9791 61.58 41.63L74.12 29.09C74.6221 28.5833 74.6221 27.7667 74.12 27.26 73.6178 26.7547 72.801 26.7521 72.2957 27.2543 72.2938 27.2562 72.2919 27.2581 72.29 27.26L64.29 35.26C63.7819 35.7681 62.9581 35.7681 62.45 35.26 61.9419 34.7519 61.9419 33.9281 62.45 33.42L70.45 25.47C70.9553 24.9678 70.9579 24.151 70.4557 23.6457 70.4538 23.6438 70.4519 23.6419 70.45 23.64 69.9433 23.1379 69.1267 23.1379 68.62 23.64L60.62 31.64C60.1133 32.1421 59.2967 32.1421 58.79 31.64 58.2847 31.1378 58.2821 30.321 58.7843 29.8157 58.7862 29.8138 58.7881 29.8119 58.79 29.81L66.79 21.86C67.3257 21.3657 67.3593 20.5307 66.865 19.995 66.3707 19.4593 65.5357 19.4257 65 19.92L52.41 32.46C51.0609 33.8108 51.0609 35.9991 52.41 37.35L49.08 40.68 53.36 45Z" fill="#FFFFFF"></path></svg>