<svg viewBox="0 0 92 92" xmlns="http://www.w3.org/2000/svg" xmlns:xlink="http://www.w3.org/1999/xlink" id="Icons" overflow="hidden"><defs></defs><circle cx="45.86" cy="45.9" r="45.66" fill="#005D48"></circle><path d="M59 64.53C58.9891 65.2788 58.3789 65.8801 57.63 65.88L33.63 65.88C32.8811 65.8801 32.2709 65.2788 32.26 64.53L32.26 25.07C32.271 24.3228 32.8827 23.7244 33.63 23.73L57.63 23.73C58.3773 23.7244 58.989 24.3228 59 25.07ZM45.69 73.79C44.0334 73.7624 42.7128 72.397 42.7404 70.7404 42.768 69.0838 44.1334 67.7632 45.79 67.7908 47.427 67.8181 48.7398 69.1528 48.74 70.79 48.7402 72.4469 47.3973 73.7902 45.7404 73.7904 45.7236 73.7904 45.7068 73.7903 45.69 73.79M40.79 20C40.79 19.42 41.14 18.94 41.58 18.94L49.8 18.94C50.24 18.94 50.59 19.42 50.59 20L50.59 20.08C50.59 20.66 50.24 21.14 49.8 21.14L41.58 21.14C41.14 21.14 40.79 20.66 40.79 20.08ZM58.71 16.31 32.71 16.31C30.5012 16.2713 28.6793 18.0306 28.6406 20.2394 28.6402 20.2629 28.64 20.2865 28.64 20.31L28.64 71.86C28.6397 74.0691 30.4302 75.8603 32.6394 75.8606 32.6629 75.8606 32.6865 75.8604 32.71 75.86L58.71 75.86C60.9188 75.8987 62.7407 74.1394 62.7794 71.9306 62.7798 71.9071 62.78 71.8835 62.78 71.86L62.78 20.27C62.7803 18.0609 60.9897 16.2697 58.7806 16.2694 58.7571 16.2694 58.7335 16.2696 58.71 16.27" fill="#FFFFFF"></path></svg>