<svg viewBox="0 0 92 92" xmlns="http://www.w3.org/2000/svg" xmlns:xlink="http://www.w3.org/1999/xlink" id="Icons" overflow="hidden"><defs></defs><circle cx="46.03" cy="45.9" r="45.66" fill="#005D48"></circle><path d="M73.28 46.69C73.28 48.3469 71.9369 49.69 70.28 49.69L59.36 49.69C58.2067 49.6862 57.1542 49.0323 56.64 48L55.18 45 59.12 39.28 61.25 43.61 70.25 43.61C71.9068 43.5928 73.2637 44.922 73.2809 46.5788 73.2813 46.6158 73.281 46.6529 73.28 46.69ZM69.28 24.05C69.2855 19.9355 65.9545 16.5955 61.84 16.59 57.7255 16.5845 54.3855 19.9155 54.38 24.03 54.3745 28.1445 57.7055 31.4845 61.82 31.49 61.8233 31.49 61.8267 31.49 61.83 31.49 65.9234 31.468 69.2301 28.1434 69.23 24.05ZM37.28 57.83C35.454 56.7832 34.0422 55.1419 33.28 53.18L18.59 67.93C17.1456 69.3781 17.1456 71.7219 18.59 73.17 19.2811 73.8638 20.2208 74.2526 21.2 74.25 22.1861 74.2476 23.1313 73.8558 23.83 73.16L38.42 58.5ZM52.85 30.21 42.23 25.71 42.23 25.71C41.5055 25.4154 40.6945 25.4154 39.97 25.71L28.87 30C27.2842 30.48 26.3877 32.1546 26.8677 33.7404 27.2789 35.099 28.5859 35.9835 30 35.86 30.3798 35.859 30.7561 35.7878 31.11 35.65L41 31.77 45.15 33.53 35.92 46.74C34.23 49.16 34.75 53.65 38.44 55.74L44.52 59.26 39.37 62.7C37.669 63.8349 37.2101 66.134 38.345 67.835 39.4799 69.536 41.779 69.9949 43.48 68.86L53.58 62.13C55.2845 61.0537 55.7937 58.7995 54.7174 57.095 54.3857 56.5697 53.9254 56.1377 53.38 55.84L46.92 52.09 55.84 39.36C58.84 35.12 56.89 32 52.85 30.21Z" fill="#FFFFFF"></path></svg>