<svg viewBox="0 0 92 92" xmlns="http://www.w3.org/2000/svg" xmlns:xlink="http://www.w3.org/1999/xlink" id="Icons" overflow="hidden"><defs></defs><circle cx="45.97" cy="46.05" r="45.66" fill="#005D48"></circle><path d="M49.51 47.54C48.7705 49.248 46.7864 50.0331 45.0784 49.2936 43.3705 48.5541 42.5854 46.57 43.3248 44.862 44.0643 43.1541 46.0484 42.3689 47.7564 43.1084 47.7576 43.109 47.7588 43.1095 47.76 43.11 49.4657 43.8509 50.2489 45.8334 49.51 47.54M54.59 26.79 45.59 38.29C41.2241 38.756 38.0626 42.6729 38.5286 47.0388 38.6821 48.4776 39.2255 49.8472 40.1 51L37.81 65.4 38.24 65.59 47.24 54.09C51.6092 53.6562 54.7995 49.7627 54.3657 45.3935 54.2198 43.9236 53.6672 42.5234 52.77 41.35L55 27Z" fill="#FFFFFF"></path><path d="M65.12 62.87 63.36 61.87 61.22 60.69 60.94 60.97 62.12 63.11 63.12 64.87C58.9071 68.6416 53.5359 70.867 47.89 71.18L47.33 69.25 46.65 66.9 46.25 66.9 45.57 69.25 45 71.21C39.3468 70.903 33.9673 68.6772 29.75 64.9L30.75 63.14 31.9 61 31.62 60.72 29.48 61.9 27.71 62.9C23.939 58.6749 21.7142 53.2945 21.4 47.64L23.34 47.08 25.68 46.4 25.68 46 23.34 45.32 21.4 44.76C21.7186 39.1124 23.9431 33.7399 27.71 29.52L29.48 30.52 31.62 31.7 31.9 31.42 30.72 29.27 29.72 27.51C33.9451 23.7234 39.3349 21.4906 45 21.18L45.56 23.12 46.24 25.47 46.64 25.47 47.32 23.12 47.88 21.18C53.5241 21.5009 58.8928 23.7252 63.11 27.49L62.11 29.25 60.94 31.4 61.22 31.68 63.36 30.5 65.12 29.5C68.8917 33.7169 71.1168 39.0912 71.43 44.74L69.5 45.3 67.15 46 67.15 46.4 69.5 47.08 71.43 47.64C71.117 53.2859 68.8916 58.6571 65.12 62.87M46.42 15.56C29.498 15.5545 15.7755 29.268 15.77 46.19 15.7645 63.112 29.478 76.8345 46.4 76.84 63.322 76.8455 77.0445 63.132 77.05 46.21 77.05 46.2067 77.05 46.2033 77.05 46.2 77.05 29.2819 63.3381 15.5655 46.42 15.56" fill="#FFFFFF"></path></svg>