<svg viewBox="0 0 92 92" xmlns="http://www.w3.org/2000/svg" xmlns:xlink="http://www.w3.org/1999/xlink" id="Icons" overflow="hidden"><defs></defs><circle cx="45.96" cy="45.95" r="45.66" fill="#005D48"></circle><path d="M56.36 30.48 56 30.48 56 27.74C55.9945 24.2424 53.1576 21.41 49.66 21.41L42.77 21.41C39.2763 21.4155 36.4455 24.2463 36.44 27.74L36.44 30.48 18.31 30.48 18.31 47 41.31 47 41.31 44.27 50.69 44.27 50.69 47 74.12 47 74.12 30.48ZM40.51 27.74C40.51 26.4902 41.5202 25.4755 42.77 25.47L49.7 25.47C50.9536 25.4534 51.9832 26.4562 51.9998 27.7098 51.9999 27.7199 52 27.7299 52 27.74L52 30.48 40.51 30.48Z" fill="#FFFFFF"></path><path d="M47.85 52.04 44.12 52.04 41.35 49.5 18.31 49.5 18.31 63.45 74.12 63.45 74.12 49.5 50.73 49.5 47.85 52.04Z" fill="#FFFFFF"></path></svg>