<svg viewBox="0 0 92 92" xmlns="http://www.w3.org/2000/svg" xmlns:xlink="http://www.w3.org/1999/xlink" id="Icons" overflow="hidden"><defs></defs><circle cx="46.04" cy="45.94" r="45.66" fill="#005D48"></circle><path d="M77.42 39.76 59.66 34.54 62.46 40C48.4546 47.9752 39.8385 62.8833 39.92 79L52.08 78.33C52.08 78.15 51.33 61.2 68 50.87L71 56.66Z" fill="#FFFFFF"></path><path d="M29.54 40 32.34 34.51 14.58 39.76 21 56.68 24 50.89C30.5457 54.8107 35.5262 60.8835 38.09 68.07 39.2945 62.8988 41.3455 57.9623 44.16 53.46 40.3186 47.9678 35.3303 43.3754 29.54 40Z" fill="#FFFFFF"></path><path d="M46 12.9 33.3 26.35 39.91 26.35 39.91 43.94C42.1606 46.0099 44.2006 48.2978 46 50.77 47.8004 48.2985 49.8402 46.0108 52.09 43.94L52.09 26.35 58.17 26.35Z" fill="#FFFFFF"></path></svg>