<svg viewBox="0 0 92 92" xmlns="http://www.w3.org/2000/svg" xmlns:xlink="http://www.w3.org/1999/xlink" id="Icons" overflow="hidden"><defs></defs><circle cx="45.9" cy="46.16" r="45.66" fill="#005D48"></circle><path d="M25.19 35.64C28.6031 35.6345 31.3655 32.8631 31.36 29.45 31.3545 26.0369 28.5831 23.2745 25.17 23.28 21.7608 23.2855 19 26.0508 19 29.46 19 32.8731 21.7669 35.64 25.18 35.64 25.1833 35.64 25.1867 35.64 25.19 35.64" fill="#FFFFFF"></path><path d="M39.32 59.11 30 59.11 30 43.28C29.879 40.6318 27.6342 38.5831 24.986 38.704 22.5071 38.8173 20.5232 40.8012 20.41 43.28L20.41 61.85C20.4155 64.4971 22.5629 66.64 25.21 66.64L35.55 66.64 35.55 75.77C35.6572 77.8493 37.4297 79.4481 39.5091 79.3409 41.4385 79.2414 42.9805 77.6994 43.08 75.77L43.08 62.87C43.0745 60.7957 41.3943 59.1155 39.32 59.11" fill="#FFFFFF"></path><path d="M69.26 35.64C72.6731 35.6455 75.4445 32.8831 75.45 29.47 75.4555 26.0569 72.6931 23.2855 69.28 23.28 65.8669 23.2745 63.0955 26.0369 63.09 29.45 63.09 29.4533 63.09 29.4567 63.09 29.46 63.09 32.8692 65.8508 35.6345 69.26 35.64" fill="#FFFFFF"></path><path d="M69.26 38.49C66.6168 38.4955 64.4755 40.6368 64.47 43.28L64.47 59.11 55.14 59.11C53.0618 59.11 51.3755 60.7918 51.37 62.87L51.37 75.76C51.2628 77.8394 52.8615 79.6119 54.9409 79.7191 57.0203 79.8263 58.7928 78.2276 58.9 76.1482 58.9067 76.0189 58.9067 75.8893 58.9 75.76L58.9 66.64 69.26 66.64C71.9071 66.64 74.0545 64.4971 74.06 61.85L74.06 43.28C74.0545 40.6329 71.9071 38.49 69.26 38.49" fill="#FFFFFF"></path><circle cx="47.31" cy="29.45" r="6.19" fill="#FFFFFF"></circle><path d="M57 40.54C56.9097 40.2359 56.764 39.9511 56.57 39.7 55.76 38.41 53.86 38.08 52.25 37.85L51.98 37.85 42.4 37.85 42.13 37.85C40.52 38.08 38.62 38.41 37.8 39.7 37.6098 39.9534 37.4644 40.2375 37.37 40.54L37.37 52.44 56.66 52.44Z" fill="#FFFFFF"></path></svg>