<svg viewBox="0 0 92 92" xmlns="http://www.w3.org/2000/svg" xmlns:xlink="http://www.w3.org/1999/xlink" id="Icons" overflow="hidden"><defs></defs><circle cx="45.99" cy="46.11" r="45.66" fill="#005D48"></circle><path d="M26.17 37C25.81 37 17.52 48.38 17.52 52.17 17.52 56.9473 21.3927 60.82 26.17 60.82 30.9473 60.82 34.82 56.9473 34.82 52.17 34.82 48.34 26.53 37 26.17 37ZM20.7 50.78C21.56 48.08 24.28 44.18 25.53 42.47 25.7951 42.1165 26.2965 42.0449 26.65 42.31 26.7106 42.3555 26.7645 42.4094 26.81 42.47 28.06 44.18 30.81 48.08 31.64 50.78Z" fill="#FFFFFF"></path><path d="M65.35 31.06C64.98 31.06 56.7 42.44 56.7 46.23 56.7 51.0073 60.5727 54.88 65.35 54.88 70.1273 54.88 74 51.0073 74 46.23 74 42.44 65.71 31.06 65.35 31.06ZM59.88 44.88C60.74 42.18 63.46 38.28 64.71 36.57 64.9751 36.2165 65.4765 36.1449 65.83 36.41 65.8906 36.4555 65.9445 36.5094 65.99 36.57 67.24 38.28 69.99 42.18 70.82 44.88Z" fill="#FFFFFF"></path><path d="M52.17 31.24 74.45 28.54 73.9 24.11 51.08 26.66C49.0904 23.8664 45.2128 23.2146 42.4192 25.2043 41.3475 25.9676 40.5458 27.0516 40.13 28.3L17 30.91 17.55 35.33 40.32 32.79C40.8928 34.0807 41.8872 35.1385 43.14 35.79L43.14 65.24C35.65 65.81 34.14 68.55 34.14 71.85L57.82 71.85C57.82 68.55 56.37 65.85 48.89 65.24L48.89 35.79C50.6461 34.8829 51.8644 33.1928 52.17 31.24ZM46.03 33.24C44.3731 33.24 43.03 31.8969 43.03 30.24 43.03 28.5831 44.3731 27.24 46.03 27.24 47.6869 27.24 49.03 28.5831 49.03 30.24 49.0522 31.8967 47.7271 33.2577 46.0704 33.2799 46.0469 33.2802 46.0235 33.2802 46 33.28Z" fill="#FFFFFF"></path></svg>