<svg viewBox="0 0 92 92" xmlns="http://www.w3.org/2000/svg" xmlns:xlink="http://www.w3.org/1999/xlink" id="Icons" overflow="hidden"><defs></defs><circle cx="46.04" cy="45.94" r="45.66" fill="#005D48"></circle><path d="M63 19 22.14 19 22.14 68.7 32.84 68.7 39 74.9 39 68.69 70 68.69 70 26.25ZM42.61 62.77C40.3194 62.9481 38.3182 61.2355 38.1401 58.945 38.1281 58.7903 38.1247 58.6351 38.13 58.48 38.13 55.67 40.08 54.19 42.61 54.19 45.14 54.19 47.09 55.67 47.09 58.48 47.1687 60.7762 45.3711 62.7014 43.075 62.7801 42.9199 62.7854 42.7647 62.782 42.61 62.77ZM45.18 47.85C45.3074 48.7455 45.6506 49.5966 46.18 50.33L40.18 52.09C39.1428 50.7275 38.5462 49.0807 38.47 47.37 38.47 40.46 49.81 41.03 49.81 34.37 49.81 31.32 47.05 30.03 43.81 30.03 41.7776 30.0547 39.7584 30.361 37.81 30.94L37.57 25.65C40.064 25.0226 42.6193 24.6705 45.19 24.6 54.78 24.6 56.97 30.22 56.97 33.46 57.1 43.32 45.18 43.37 45.18 47.85Z" fill="#FFFFFF"></path></svg>