<svg viewBox="0 0 92 92" xmlns="http://www.w3.org/2000/svg" xmlns:xlink="http://www.w3.org/1999/xlink" id="Icons" overflow="hidden"><defs></defs><circle cx="46" cy="45.89" r="45.66" fill="#005D48"></circle><path d="M60 32.91 46.88 28.27C46.7429 28.23 46.5971 28.23 46.46 28.27L33.35 32.91C33.132 32.9838 32.9865 33.1899 32.99 33.42 32.9884 33.6519 33.1324 33.8599 33.35 33.94L46.46 38.58C46.5297 38.5897 46.6003 38.5897 46.67 38.58L46.67 38.58C46.7329 38.5904 46.7971 38.5904 46.86 38.58L60 33.94C60.214 33.8552 60.356 33.6501 60.36 33.42 60.3604 33.1908 60.2161 32.9864 60 32.91Z" fill="#FFFFFF"></path><path d="M46.67 40.77 46.67 40.77 39 38.06 39 43.94 39 43.94C39.06 45.15 42.49 47.07 46.72 47.07 50.95 47.07 54.38 45.15 54.44 43.94L54.44 43.94 54.44 38.06 46.74 40.79Z" fill="#FFFFFF"></path><path d="M26 52.88 67.35 52.88C68.2171 52.88 68.92 52.1771 68.92 51.31L68.92 23.9C68.92 23.0329 68.2171 22.33 67.35 22.33L26 22.33C25.1329 22.3245 24.4256 23.0229 24.42 23.89 24.42 23.8933 24.42 23.8967 24.42 23.9L24.42 51.31C24.4255 52.1787 25.1313 52.88 26 52.88ZM27.57 25.47 65.78 25.47 65.78 49.73 27.56 49.73Z" fill="#FFFFFF"></path><path d="M77 66.66 70 55.87C69.8291 55.598 69.5312 55.432 69.21 55.43L24.14 55.43C23.8188 55.4321 23.5209 55.598 23.35 55.87L16.35 66.66C16.0683 67.1026 16.1988 67.6898 16.6414 67.9715 16.7905 68.0665 16.9632 68.1179 17.14 68.12L76.19 68.12C76.5385 68.122 76.8589 67.929 77.02 67.62 77.1896 67.3205 77.1819 66.9522 77 66.66ZM54.4 65.35 38.94 65.35C38.2441 65.35 37.68 64.7859 37.68 64.09 37.68 63.3941 38.2441 62.83 38.94 62.83L54.4 62.83C55.0959 62.83 55.66 63.3941 55.66 64.09 55.66 64.7859 55.0959 65.35 54.4 65.35Z" fill="#FFFFFF"></path></svg>