<svg viewBox="0 0 92 92" xmlns="http://www.w3.org/2000/svg" xmlns:xlink="http://www.w3.org/1999/xlink" overflow="hidden"><defs></defs><g id="Icons"><circle cx="45.97" cy="46.05" r="45.66" fill="#005D48"></circle></g><g id="labels_for_icons"><path d="M46.17 17.65C61.761 17.6647 74.388 30.3157 74.3733 45.9067 74.3586 61.4977 61.7076 74.1247 46.1166 74.11 30.5256 74.0952 17.8986 61.4443 17.9133 45.8533 17.924 34.5121 24.7207 24.2784 35.17 19.87 38.6514 18.4021 42.3918 17.6472 46.17 17.65M46.17 15.25C29.1983 15.25 15.44 29.0083 15.44 45.98 15.44 62.9517 29.1983 76.71 46.17 76.71 63.1339 76.71 76.889 62.9639 76.9 46 76.9166 29.0338 63.1762 15.2666 46.21 15.25 46.1967 15.25 46.1833 15.25 46.17 15.25Z" fill="#FFFFFF"></path><path d="M63.62 45.11C64.56 45.58 64.56 46.36 63.62 46.84L37.24 60.19C36.7556 60.5474 36.0732 60.4445 35.7157 59.9602 35.5377 59.7189 35.4669 59.4151 35.52 59.12L35.52 32.83C35.4195 32.2309 35.8238 31.6637 36.423 31.5632 36.7093 31.5152 37.003 31.5824 37.24 31.75Z" fill="#FFFFFF"></path></g></svg>