<svg viewBox="0 0 92 92" xmlns="http://www.w3.org/2000/svg" xmlns:xlink="http://www.w3.org/1999/xlink" id="Icons" overflow="hidden"><defs></defs><circle cx="46.03" cy="46.06" r="45.66" fill="#005D48"></circle><path d="M83.61 29.93C83.0898 29.553 82.4201 29.4488 81.81 29.65L78.49 30.74C75.81 31.62 73.23 32.46 70.67 33.34 69.5298 33.7992 68.2326 33.6285 67.25 32.89 66.58 32.42 65.93 31.89 65.25 31.45L64.41 30.82C59.26 27.04 53.65 26.72 48.17 29.88 47.2009 30.4723 46.1993 31.0098 45.17 31.49 44.98 31.38 43.97 30.7 43.76 30.62 38.76 28.84 34.31 30.05 30.23 33.01 26.62 35.63 22.94 36.48 18.64 34.79 15.64 33.63 12.55 32.85 9.29 31.84L9.29 52.23C10.6437 52.5545 11.979 52.9518 13.29 53.42 15.45 54.29 18.38 54.81 18.29 55.63 17.9389 58.6833 19.9865 61.4961 23 62.1 23.57 64.61 24.78 65.71 27.57 66.26 28.14 68.78 29.36 69.92 32.07 70.52 32.95 73.34 34.72 74.77 37.37 74.77L37.8 74.77C40.06 74.64 43.36 71.91 44.98 69.33 45.3632 70.6513 46.5194 71.6009 47.89 71.72 48.89 71.86 50.46 70.66 51.08 69.92 52.08 68.77 48.21 65.29 47.76 64.68L48.31 64.2C49.23 65 50.67 66.2 51.6 67.02 53.34 68.51 54.84 68.72 56.26 67.26 57.68 65.8 57.08 64.61 55.38 63.07 54.58 62.35 53.58 61.17 52.83 60.4 53.05 60.16 53.27 59.93 53.49 59.71 54.86 60.92 56.49 62.52 57.89 63.71 59.29 64.9 60.36 65.37 62.23 63.87 63.88 62.55 63.23 61.29 61.53 59.7 60.34 58.59 59.41 57.29 58.22 56.17L58.71 55.54C59.2 55.82 62.31 58.78 63.52 59.86 65.3 61.46 66.52 61.86 68.35 60.27 69.76 59.04 69.93 58.06 68.61 56.7 69.2626 56.8707 69.9355 56.9514 70.61 56.94 70.7982 56.9393 70.9859 56.9192 71.17 56.88 74.17 56.26 77.17 55.54 80.17 54.88L82.93 54.23C83.8563 54.0164 84.5043 53.1803 84.48 52.23L84.48 31.56C84.4734 30.9072 84.1486 30.2988 83.61 29.93ZM37.69 72.75C35.45 72.87 34.24 71.67 33.69 68.75 30.34 68.28 29.69 67.63 29.29 64.48 25.72 64.05 25.12 63.48 24.73 60.4 21.58 59.88 20.03 58.59 20.22 56.63 20.4 54.87 23.14 52.42 25.02 52.35 27.24 52.27 28.42 53.56 28.81 56.47 32.27 56.86 32.89 57.41 33.42 60.55 36.91 61.14 37.47 61.66 37.95 64.81 41.4 65.41 42.33 66.17 42.25 68.37 42.21 70.26 39.72 72.64 37.69 72.75ZM82.44 52.23C78.57 53.14 74.68 54.1 70.76 54.91 70.22 55.02 69.41 54.47 68.92 54.02 64.35 49.85 59.82 45.64 55.28 41.43 52.85 39.17 52.43 39.09 49.47 40.43 46.9367 41.61 44.4033 42.78 41.87 43.94 41.2742 44.2565 40.6476 44.5112 40 44.7 37.83 45.2 35.81 44.43 35.28 42.87 34.57 40.78 35.72 39.57 37.4 38.58 41.34 36.29 45.23 33.9 49.17 31.58 54.01 28.78 58.71 29.1 63.17 32.4 64.12 33.1 65.06 33.81 66.02 34.49 67.5256 35.6095 69.5005 35.8776 71.25 35.2 74.85 33.96 78.48 32.8 82.37 31.52Z" fill="#FFFFFF"></path></svg>