<svg viewBox="0 0 92 92" xmlns="http://www.w3.org/2000/svg" xmlns:xlink="http://www.w3.org/1999/xlink" overflow="hidden"><defs></defs><g id="Icons"><circle cx="46.03" cy="46.06" r="45.66" fill="#005D48"></circle></g><g id="labels_for_icons"><path d="M46.52 10.28C34.0991 10.2831 24.0325 20.3548 24.0357 32.7757 24.0372 38.737 26.4054 44.4539 30.62 48.67 34.0116 52.0777 38.4137 54.298 43.17 55L43.17 62.54 35.45 62.54 35.45 69.24 43.17 69.24 43.17 77 49.87 77 49.87 69.25 57.59 69.25 57.59 62.55 49.87 62.55 49.87 55C62.1512 53.1428 70.6016 41.6813 68.7443 29.4 68.0269 24.6556 65.8108 20.2651 62.42 16.87 58.2148 12.6351 52.4881 10.2615 46.52 10.28ZM46.52 48.56C37.7994 48.56 30.73 41.4906 30.73 32.77 30.73 24.0494 37.7994 16.98 46.52 16.98 55.2406 16.98 62.31 24.0494 62.31 32.77 62.3045 41.4883 55.2383 48.5545 46.52 48.56Z" fill="#FFFFFF"></path></g></svg>