<svg viewBox="0 0 92 92" xmlns="http://www.w3.org/2000/svg" xmlns:xlink="http://www.w3.org/1999/xlink" id="Icons" overflow="hidden"><defs></defs><circle cx="45.75" cy="46.17" r="45.66" fill="#005D48"></circle><path d="M73.3 23.88 56.52 23.88 56.52 20.42 50.12 20.42 50.12 23.88 38.4 23.88 38.4 27.61 69.57 27.61 69.57 59.04 39.47 59.04 39.47 62.77 52.38 62.77 43.95 72.85 45.64 74.54 53.32 65.95 61 74.54 62.69 72.85 54.26 62.77 73.3 62.77 73.3 23.88Z" fill="#FFFFFF"></path><circle cx="30" cy="25.59" r="5.53" fill="#FFFFFF" transform="matrix(0.0984514 -0.995142 0.995142 0.0984514 1.58 52.92)"></circle><path d="M49.91 32.85 34.22 33 25.61 33 25.38 33C23.94 33.2 22.24 33.5 21.51 34.65 21.3442 34.8782 21.2159 35.1314 21.13 35.4L16.13 51.1C15.6809 52.2376 16.2228 53.5256 17.35 54 18.506 54.2991 19.6875 53.6125 20 52.46L23.51 41.55C23.51 44.25 23.51 71.82 23.51 71.82 23.5044 73.3112 24.7087 74.5245 26.1998 74.5301 26.2132 74.5302 26.2266 74.5301 26.24 74.53 27.84 74.53 28.69 72.93 28.69 71.43L28.69 55.49C28.69 54.93 29.47 55.02 29.89 55.02 30.31 55.02 31.07 55.02 31.07 55.51L31.07 71.45C31.07 72.95 31.93 74.53 33.53 74.53 35.0322 74.5411 36.2589 73.3323 36.2699 71.8301 36.27 71.8267 36.27 71.8234 36.27 71.82L36.27 41.41C36.27 41.41 36.33 39 36.35 37.05L50 37C51.2355 36.8891 52.1676 35.8296 52.12 34.59 52.19 33.26 50.77 32.84 49.91 32.85Z" fill="#FFFFFF"></path></svg>