<svg viewBox="0 0 92 92" xmlns="http://www.w3.org/2000/svg" xmlns:xlink="http://www.w3.org/1999/xlink" id="Icons" overflow="hidden"><defs></defs><circle cx="45.99" cy="46.03" r="45.66" fill="#005D48"></circle><path d="M64.06 36.75 64.06 22.3C64.0686 20.6041 62.7526 19.196 61.06 19.09 59.3297 18.974 57.833 20.2827 57.717 22.013 57.7122 22.0852 57.7098 22.1576 57.71 22.23L57.71 37C57.6532 37.5827 57.1348 38.009 56.5522 37.9522 56.0481 37.903 55.6491 37.5041 55.6 37L55.6 16.07C55.616 14.3918 54.3328 12.9863 52.66 12.85 50.9167 12.7672 49.4364 14.1132 49.3536 15.8564 49.3513 15.9043 49.3501 15.9521 49.35 16L49.35 34.91C49.35 35.4899 48.8799 35.96 48.3 35.96 47.7201 35.96 47.25 35.4899 47.25 34.91L47.25 13.91C47.25 12.1703 45.8397 10.76 44.1 10.76 42.3603 10.76 40.95 12.1703 40.95 13.91L40.95 37C40.95 37.5799 40.4799 38.05 39.9 38.05 39.3201 38.05 38.85 37.5799 38.85 37L38.85 18.17C38.8586 16.4741 37.5426 15.066 35.85 14.96 34.1201 14.8385 32.6192 16.1424 32.4977 17.8723 32.4924 17.9481 32.4898 18.024 32.49 18.1L32.49 36.75C32.4796 36.8364 32.4796 36.9236 32.49 37.01L32.49 46.74 25.13 38C24.53 37.1668 23.5763 36.6604 22.55 36.63 21.1816 36.644 19.9746 37.5291 19.55 38.83 19.2902 39.6199 19.3587 40.4811 19.74 41.22L29.14 59.97C30.6998 63.0924 33.4043 65.4924 36.69 66.67L36.69 81.51 57.86 81.51 57.86 66.13C61.6854 64.122 64.0839 60.1604 64.09 55.84L64.09 37C64.0897 36.9158 64.0796 36.8319 64.06 36.75ZM57.06 51.45C55.47 56 49 60.79 47.41 62 45.86 60.79 39.41 56 37.79 51.45 36.37 47.33 40.18 39.35 47.41 45.39 54.65 39.35 58.46 47.33 57 51.45Z" fill="#FFFFFF"></path></svg>