<svg viewBox="0 0 92 92" xmlns="http://www.w3.org/2000/svg" xmlns:xlink="http://www.w3.org/1999/xlink" id="Icons" overflow="hidden"><defs></defs><circle cx="46.04" cy="46.09" r="45.66" fill="#005D48"></circle><circle cx="59.5" cy="23.58" r="5.93" fill="#FFFFFF"></circle><path d="M50.79 59.8 44.87 59.87C44.9359 64.7794 41.0095 68.8126 36.1001 68.8785 31.1907 68.9444 27.1575 65.018 27.0916 60.1086 27.0257 55.1992 30.9521 51.166 35.8615 51.1001 35.8643 51.1001 35.8672 51.1 35.87 51.1L37.29 45.37C27.14 44.46 21.06 52 21.17 60.18 21.2749 68.3593 27.9907 74.9049 36.17 74.8 44.3493 74.6951 50.8949 67.9793 50.79 59.8ZM59.55 49.31 54 49.38 58.8 38.45C60.1155 35.4447 58.7456 31.9421 55.7403 30.6266 54.9434 30.2778 54.0796 30.1083 53.21 30.13L37.81 30.33C35.4274 30.3755 33.2918 31.8109 32.35 34L29.42 42.68 36.15 40.85 38 36.26 44.55 36.17 39.3 48.39C37.9799 51.5075 39.437 55.1049 42.5545 56.425 43.2938 56.7381 44.0873 56.9028 44.89 56.91L59.64 56.72 59.83 71.53 65.75 74.53 65.55 55.16C65.4686 51.905 62.806 49.309 59.55 49.31Z" fill="#FFFFFF"></path></svg>