<svg viewBox="0 0 92 92" xmlns="http://www.w3.org/2000/svg" xmlns:xlink="http://www.w3.org/1999/xlink" id="Icons" overflow="hidden"><defs></defs><circle cx="45" cy="46" r="45.66" fill="#005D48"></circle><path d="M70.61 62.3C69.1821 60.8745 67.1426 60.2458 65.16 60.62L49.24 44.7C51.0336 40.1117 48.7681 34.9382 44.1798 33.1446 42.8263 32.6155 41.3639 32.4251 39.92 32.59 39.4324 32.6516 39.087 33.0969 39.1486 33.5846 39.1733 33.7794 39.2616 33.9606 39.4 34.1L44.13 38.82C44.3512 39.047 44.4384 39.3728 44.36 39.68L43.36 43.28C43.2783 43.5822 43.0422 43.8183 42.74 43.9L39.14 44.9C38.8328 44.9784 38.507 44.8912 38.28 44.67L33.56 39.94C33.2112 39.5937 32.6477 39.5958 32.3014 39.9446 32.163 40.084 32.0746 40.2652 32.05 40.46 31.491 45.3546 35.0056 49.7756 39.9002 50.3346 41.3441 50.4995 42.8064 50.3091 44.16 49.78L60.11 65.67C59.7358 67.6526 60.3645 69.6921 61.79 71.12 64.305 73.4761 68.2539 73.3473 70.61 70.8322 72.8582 68.4324 72.8582 64.6998 70.61 62.3ZM66.17 69.83C64.4303 69.83 63.02 68.4197 63.02 66.68 63.02 64.9403 64.4303 63.53 66.17 63.53 67.9097 63.53 69.32 64.9403 69.32 66.68 69.32 66.6833 69.32 66.6867 69.32 66.69 69.3145 68.4258 67.9058 69.83 66.17 69.83Z" fill="#FFFFFF"></path><path d="M44.91 55.87C37.1246 58.011 29.0777 53.4354 26.9367 45.65 24.7957 37.8646 29.3713 29.8177 37.1567 27.6767 44.942 25.5357 52.989 30.1113 55.13 37.8967 55.8278 40.434 55.8278 43.1127 55.13 45.65L59.63 50.16 62.48 50 63.71 45.44 60.71 43.44 60.71 43.44C60.71 42.9 60.78 42.36 60.77 41.82 60.76 41.28 60.77 40.76 60.77 40.23L63.77 38.23 62.54 33.67 58.88 33.42C58.4311 32.4608 57.9026 31.5409 57.3 30.67L58.92 27.38 55.51 24 52.23 25.61C51.3519 25.0046 50.4292 24.4664 49.47 24L49.22 20.35 44.66 19.1 42.66 22.1 42.66 22.1C42.13 22.1 41.59 22.03 41.05 22.03 40.51 22.03 39.97 22.03 39.44 22.1L39.44 22.1 37.44 19.1 32.87 20.32 32.59 24C31.6275 24.4486 30.7042 24.9771 29.83 25.58L26.55 24 23.21 27.34 24.82 30.63C24.2178 31.5065 23.6861 32.4294 23.23 33.39L19.58 33.63 18.35 38.19 21.35 40.19C21.35 40.72 21.29 41.25 21.3 41.78 21.31 42.31 21.3 42.86 21.36 43.4L21.36 43.4 18.36 45.4 19.57 50 23.23 50.24C23.6839 51.2018 24.2157 52.1249 24.82 53L23.21 56.29 26.55 59.63 29.83 58C30.7088 58.5985 31.6314 59.13 32.59 59.59L32.83 63.24 37.4 64.46 39.4 61.46C39.93 61.46 40.47 61.52 41 61.52 41.53 61.52 42.08 61.52 42.61 61.46L44.61 64.46 49.18 63.24 49.37 60.39Z" fill="#FFFFFF"></path></svg>