<svg viewBox="0 0 92 92" xmlns="http://www.w3.org/2000/svg" xmlns:xlink="http://www.w3.org/1999/xlink" id="Icons" overflow="hidden"><defs></defs><circle cx="45.41" cy="46.16" r="45.66" fill="#005D48"></circle><path d="M24 32.54C27.4186 32.5455 30.1945 29.7786 30.2 26.36 30.2055 22.9414 27.4386 20.1655 24.02 20.16 20.6013 20.1545 17.8255 22.9214 17.82 26.34 17.82 26.3467 17.82 26.3533 17.82 26.36 17.82 29.7731 20.5869 32.54 24 32.54" fill="#FFFFFF"></path><path d="M38.09 56 28.76 56 28.76 40.18C28.881 37.5318 26.8322 35.2869 24.184 35.166 21.5358 35.045 19.291 37.0937 19.17 39.7419 19.1633 39.8879 19.1633 40.0341 19.17 40.18L19.17 58.74C19.1699 61.391 21.3189 63.54 23.9699 63.5401 23.9799 63.5401 23.99 63.5401 24 63.54L34.32 63.54 34.32 72.66C34.32 74.7421 36.0079 76.43 38.09 76.43 40.1721 76.43 41.86 74.7421 41.86 72.66L41.86 59.77C41.8655 57.6934 40.1866 56.0055 38.11 56 38.1034 56 38.0967 56 38.09 56" fill="#FFFFFF"></path><path d="M68 32.54C71.4186 32.5455 74.1945 29.7786 74.2 26.36 74.2055 22.9414 71.4386 20.1655 68.02 20.16 64.6013 20.1545 61.8255 22.9214 61.82 26.34 61.82 26.3467 61.82 26.3533 61.82 26.36 61.82 29.7731 64.5869 32.54 68 32.54" fill="#FFFFFF"></path><path d="M68 35.38C65.3568 35.3855 63.2155 37.5268 63.21 40.17L63.21 56 53.91 56C51.8357 56.0055 50.1555 57.6857 50.15 59.76L50.15 72.66C50.0428 74.7394 51.6415 76.5119 53.7209 76.6191 55.8003 76.7263 57.5728 75.1276 57.68 73.0482 57.6867 72.9189 57.6867 72.7893 57.68 72.66L57.68 63.54 68 63.54C70.6471 63.5345 72.79 61.3871 72.79 58.74L72.79 40.17C72.7845 37.5268 70.6432 35.3855 68 35.38" fill="#FFFFFF"></path><rect x="35.06" y="43.96" width="21.6" height="6.4" fill="#FFFFFF"></rect></svg>