<svg viewBox="0 0 92 92" xmlns="http://www.w3.org/2000/svg" xmlns:xlink="http://www.w3.org/1999/xlink" id="Icons" overflow="hidden"><defs></defs><circle cx="45.96" cy="46.01" r="45.66" fill="#005D48"></circle><path d="M34.57 49.06 36.39 50.06 31.86 42.16 22.63 42.16 24.63 43.3 21 49.76C20.2855 50.9976 20.2855 52.5224 21 53.76L28.14 66.13C27.0909 64.3211 27.0909 62.0889 28.14 60.28Z" fill="#FFFFFF"></path><path d="M33.5 67.33C31.2135 67.3312 29.359 65.4786 29.3579 63.1921 29.3575 62.4529 29.555 61.7271 29.93 61.09L29.93 61.09 32.48 56.66 44.32 56.66 44.32 67.33Z" fill="#FFFFFF"></path><path d="M50.26 36.43 48.44 37.43 57.56 37.43 62.17 29.43 60.17 30.61 56.47 24.2C55.7544 22.9606 54.4312 22.1979 53 22.2L38.72 22.2C40.8114 22.2033 42.7415 23.3247 43.78 25.14Z" fill="#FFFFFF"></path><path d="M38 24C36.3474 23.9815 34.8153 24.8624 34 26.3L28.46 36 38.37 41.72 44.61 30.92 42 26.31C41.1857 24.8701 39.6541 23.9856 38 24" fill="#FFFFFF"></path><path d="M53.28 56.32 53.28 54.22 48.7 62.1 53.32 70.1 53.32 67.77 60.7 67.77C62.1347 67.7757 63.4626 67.0125 64.18 65.77L71.32 53.4C70.2748 55.2146 68.334 56.3264 66.24 56.31Z" fill="#FFFFFF"></path><path d="M69.93 52.3C70.7505 50.8871 70.7505 49.1428 69.93 47.73 69.93 47.73 67.17 43 64.32 38L54.41 43.73 60.64 54.53 66 54.53C67.6463 54.5546 69.1769 53.686 70 52.26" fill="#FFFFFF"></path></svg>