<svg viewBox="0 0 92 92" xmlns="http://www.w3.org/2000/svg" xmlns:xlink="http://www.w3.org/1999/xlink" id="Icons" overflow="hidden"><defs></defs><circle cx="45.9" cy="45.94" r="45.66" fill="#005D48"></circle><path d="M51.87 62.33 40.51 62.33C39.6219 64.7903 38.0883 66.9663 36.07 68.63 36.0236 69.9192 35.4174 71.1242 34.41 71.93L34.41 77.11 58 77.11 58 71.93C56.9894 71.1268 56.3824 69.9203 56.34 68.63 54.3188 66.969 52.7846 64.7921 51.9 62.33" fill="#FFFFFF"></path><path d="M27 30.65 31.42 30.65C32.2076 36.693 33.8929 42.5846 36.42 48.13L35.77 47.75C29.01 43.75 26.36 38.75 26.97 30.65M60.87 30.65 65.29 30.65C65.9 38.71 63.29 43.77 56.49 47.75L55.83 48.13C58.3622 42.5864 60.0477 36.6941 60.83 30.65M30.83 51.46 39 52.83C39 52.83 41.29 56.1 41.9 56.83L41.9 56.83 41.9 59.53 50.5 59.53 50.5 56.83 50.45 56.83C51.07 56.15 53.25 53.05 53.25 53.05L61.5 51.51C69.09 45.99 71.89 38.19 70.3 27.2L69.93 24.68 61.54 24.68C61.6 23.68 61.65 22.68 61.68 21.68L30.68 21.68C30.68 22.68 30.75 23.73 30.81 24.68L22.46 24.68 22.09 27.2C20.5 38.2 23.3 45.99 30.89 51.51" fill="#FFFFFF"></path></svg>