<svg viewBox="0 0 92 92" xmlns="http://www.w3.org/2000/svg" xmlns:xlink="http://www.w3.org/1999/xlink" id="Icons" overflow="hidden"><defs></defs><circle cx="45.97" cy="45.94" r="45.66" fill="#005D48"></circle><path d="M53.05 49 45.23 56.82 37.41 49C35.6013 47.1802 35.6102 44.2387 37.43 42.43 39.2498 40.6213 42.1913 40.6302 44 42.45L45.27 43.73 46.52 42.45C48.139 40.4565 51.0676 40.153 53.0611 41.772 55.0545 43.3911 55.3581 46.3196 53.739 48.3131 53.534 48.5655 53.3031 48.7958 53.05 49M45.23 20.25 20.23 36.59 20.23 41.23 24.48 41.23 24.48 67.93 66 67.93 66 41.23 70.22 41.23 70.22 36.59Z" fill="#FFFFFF"></path></svg>