<svg viewBox="0 0 92 92" xmlns="http://www.w3.org/2000/svg" xmlns:xlink="http://www.w3.org/1999/xlink" id="Icons" overflow="hidden"><defs></defs><circle cx="45.93" cy="45.86" r="45.66" fill="#005D48"></circle><circle cx="62.79" cy="23.15" r="5.88" fill="#FFFFFF"></circle><path d="M75.76 51.54C77.12 51.17 77.1 49.59 76.82 48.72L72 33.63C71.9142 33.3432 71.7751 33.0752 71.59 32.84 70.82 31.61 69.01 31.29 67.48 31.08L67.23 31.08 58.12 31.08 57.87 31.08C56.34 31.29 54.53 31.61 53.76 32.84 53.5822 33.0799 53.4438 33.3466 53.35 33.63L48 50.34C47.5729 51.5346 48.1579 52.8543 49.33 53.34 50.5542 53.6788 51.8213 52.961 52.1601 51.7368 52.1635 51.7246 52.1668 51.7123 52.17 51.7L55.9 40.14C55.9 43 55.9 72.34 55.9 72.34 55.8999 73.9361 57.1937 75.2301 58.7898 75.2301 58.7999 75.2301 58.8099 75.2301 58.82 75.23 60.51 75.23 61.41 73.52 61.41 71.94L61.41 55C61.41 54.4 62.25 54.5 62.69 54.5 63.13 54.5 64 54.47 64 55L64 72C64 73.58 64.92 75.27 66.62 75.27 68.2161 75.281 69.5189 73.9961 69.5299 72.4001 69.53 72.3934 69.53 72.3867 69.53 72.38L69.53 40 72.69 50.14C73.1893 51.3382 74.528 51.9487 75.76 51.54Z" fill="#FFFFFF"></path><circle cx="29.75" cy="23.15" r="5.88" fill="#FFFFFF"></circle><path d="M43.77 47.17 39 33.63C38.9062 33.3466 38.7678 33.0799 38.59 32.84 37.81 31.61 36.01 31.29 34.47 31.08L34.22 31.08 25.08 31.08 24.83 31.08C23.29 31.29 21.49 31.61 20.71 32.84 20.5318 33.0781 20.3964 33.3454 20.31 33.63L15 47.24C14.5849 48.4369 15.1715 49.7504 16.34 50.24 17.571 50.5749 18.8405 49.8484 19.1754 48.6174 19.1769 48.6116 19.1785 48.6058 19.18 48.6L22.9 40.09 22.9 43 19 60.2 22.81 60.2C22.81 66.73 22.81 72.31 22.81 72.31 22.8044 73.9006 24.0893 75.1945 25.6798 75.2001 25.6932 75.2002 25.7066 75.2001 25.72 75.2 27.42 75.2 28.32 73.49 28.32 71.91L28.32 60.26 30.85 60.26 30.85 72C30.85 73.58 31.78 75.27 33.47 75.27 35.0605 75.2866 36.3633 74.0107 36.3799 72.4202 36.38 72.4068 36.3801 72.3934 36.38 72.38L36.38 60.38 40.08 60.38 36.43 43 36.43 40 39.59 48.59C40.0867 49.8177 41.4603 50.4384 42.71 50 44.07 49.62 44.05 48 43.77 47.17Z" fill="#FFFFFF"></path></svg>