<svg viewBox="0 0 92 92" xmlns="http://www.w3.org/2000/svg" xmlns:xlink="http://www.w3.org/1999/xlink" id="Icons" overflow="hidden"><defs></defs><circle cx="45.9" cy="45.87" r="45.66" fill="#005D48"></circle><path d="M25.89 52.76 67.25 52.76C68.1171 52.7655 68.8244 52.0671 68.83 51.2 68.83 51.1967 68.83 51.1933 68.83 51.19L68.83 23.78C68.83 22.9129 68.1271 22.21 67.26 22.21 67.2567 22.21 67.2533 22.21 67.25 22.21L25.89 22.21C25.0229 22.21 24.32 22.9129 24.32 23.78L24.32 51.19C24.32 52.0571 25.0229 52.76 25.89 52.76ZM27.46 25.35 65.68 25.35 65.68 49.61 27.46 49.61Z" fill="#FFFFFF"></path><path d="M76.89 66.54 69.89 55.75C69.7181 55.4804 69.4197 55.318 69.1 55.32L24 55.32C23.6803 55.318 23.3819 55.4804 23.21 55.75L16.21 66.54C16.0314 66.8494 16.0314 67.2306 16.21 67.54 16.3755 67.8435 16.6943 68.0317 17.04 68.03L76.1 68.03C76.6191 68.0338 77.0431 67.6161 77.0469 67.097 77.0483 66.9096 76.9937 66.7261 76.89 66.57ZM54.3 65.23 38.84 65.23C38.1441 65.23 37.58 64.6659 37.58 63.97 37.58 63.2741 38.1441 62.71 38.84 62.71L54.3 62.71C54.9959 62.71 55.56 63.2741 55.56 63.97 55.56 64.6659 54.9959 65.23 54.3 65.23Z" fill="#FFFFFF"></path></svg>