<svg viewBox="0 0 92 92" xmlns="http://www.w3.org/2000/svg" xmlns:xlink="http://www.w3.org/1999/xlink" id="Icons" overflow="hidden"><defs></defs><circle cx="45.88" cy="46.11" r="45.66" fill="#005D48"></circle><path d="M34.88 56.9 34.88 63.43C37.532 64.095 40.2559 64.4309 42.99 64.43L43.12 48.86 38.37 47.35C32.24 45.7 28.15 42.07 28.15 36.07 28.15 26.83 35.8 22.41 43.25 22.07L43.38 13.57 48.38 13.57 48.25 22.07C52.3958 22.2487 56.4989 22.9819 60.45 24.25L60.45 34.47 54.25 34.47 54.25 28.93C52.3268 28.2317 50.296 27.8764 48.25 27.88L48.13 43 52.13 44.12C59.13 46.04 63.41 48.61 63.41 56.52 63.41 64.7 57.21 69.45 47.98 70.24L47.84 78.24 42.84 78.24 42.97 70.24C37.17 70.24 31.1 69.39 28.33 68.24L28.33 56.9ZM43.12 41.6 43.25 27.88C38.31 28.47 35.73 31.44 35.54 34.94 35.54 37.31 36.72 39.88 40.94 41ZM48.2 50.17 47.94 64.42C53.28 63.83 55.94 61.19 55.94 57.03 55.94 52.87 53.3 51.62 50.01 50.7Z" fill="#FFFFFF"></path></svg>