<svg viewBox="0 0 92 92" xmlns="http://www.w3.org/2000/svg" xmlns:xlink="http://www.w3.org/1999/xlink" id="Icons" overflow="hidden"><defs></defs><circle cx="45.95" cy="45.95" r="45.66" fill="#005D48"></circle><path d="M44.7 21.64 71.52 21.64 75.76 25.3 75.76 44.09 55.28 44.09 51.28 47.99 51.28 44.09 44.7 44.09ZM71.3 27 49 27 49 29.06 71.3 29.06ZM71.3 31.47 49 31.47 49 33.52 71.3 33.52ZM71.3 35.87 49 35.87 49 38 71.3 38Z" fill="#FFFFFF"></path><circle cx="31.22" cy="40.84" r="8.24" fill="#FFFFFF"></circle><path d="M44.18 55.61C44.0497 55.2073 43.8537 54.8288 43.6 54.49 42.52 52.77 40 52.33 37.84 52L37.49 52 24.68 52 24.32 52.05C22.18 52.35 19.64 52.79 18.56 54.51 18.3149 54.8439 18.1258 55.2154 18 55.61L18 71.47 43.68 71.47Z" fill="#FFFFFF"></path></svg>