<svg viewBox="0 0 92 92" xmlns="http://www.w3.org/2000/svg" xmlns:xlink="http://www.w3.org/1999/xlink" id="Icons" overflow="hidden"><defs><clipPath id="clip-path"><path d="M22.66 24.34C21.1968 24.5077 20.1354 25.8134 20.27 27.28L20.27 58.73C20.1354 60.1966 21.1968 61.5023 22.66 61.67L38.24 61.67 38.24 63.19C38.1902 63.8334 37.9342 64.4436 37.51 64.93L33.84 68.61C33.7616 68.6832 33.6942 68.7674 33.64 68.86 33.7099 68.8908 33.7841 68.911 33.86 68.92L33.86 70.2 57.32 70.2 57.32 68.93 57.52 68.93 57.52 68.93C57.52 68.93 57.52 68.86 57.34 68.69L54.59 65.93 53.5 64.82C53.1269 64.3952 52.9115 63.8549 52.89 63.29L52.89 61.67 68.41 61.67C69.8732 61.5023 70.9346 60.1966 70.8 58.73L70.8 27.28C70.9346 25.8134 69.8732 24.5077 68.41 24.34Z" fill="none"></path></clipPath></defs><circle cx="45.9" cy="45.87" r="45.66" fill="#005D48"></circle><path d="M68.41 24.34 22.66 24.34C21.1968 24.5077 20.1354 25.8134 20.27 27.28L20.27 58.73C20.1354 60.1966 21.1968 61.5023 22.66 61.67L38.24 61.67 38.24 63.19C38.1902 63.8334 37.9342 64.4436 37.51 64.93L33.84 68.61C33.7644 68.6858 33.6974 68.7696 33.64 68.86 33.7127 68.874 33.7873 68.874 33.86 68.86L33.86 70.14 57.32 70.14 57.32 68.92 57.52 68.92C57.52 68.92 57.52 68.85 57.34 68.67L54.58 65.92 53.5 64.82C53.1261 64.3949 52.9075 63.8555 52.88 63.29L52.88 61.67 68.41 61.67C69.8732 61.5023 70.9346 60.1966 70.8 58.73L70.8 27.28C70.9346 25.8134 69.8732 24.5077 68.41 24.34" fill="#5C8627"></path><g clip-path="url(#clip-path)"><rect x="14.08" y="19.64" width="61.78" height="54.51" fill="#FFFFFF"></rect></g><path d="M66.43 55.39C66.4636 56.8958 65.2755 58.1464 63.77 58.19L26.52 58.19C25.0105 58.1518 23.8165 56.8996 23.85 55.39L23.85 31.5C23.822 29.9943 25.0145 28.7482 26.52 28.71L63.77 28.71C65.274 28.7482 66.4635 29.9959 66.43 31.5Z" fill="#005D48"></path></svg>