<svg viewBox="0 0 92 92" xmlns="http://www.w3.org/2000/svg" xmlns:xlink="http://www.w3.org/1999/xlink" id="Icons" overflow="hidden"><defs></defs><circle cx="44.06" cy="45.54" r="45.66" fill="#005D48"></circle><path d="M8.09 51 8.09 30.64C11.35 31.64 14.48 32.43 17.45 33.64 21.74 35.33 25.45 34.48 29.03 31.86 33.11 28.86 37.6 27.69 42.56 29.47 42.7683 29.5329 42.9721 29.6097 43.17 29.7 43.29 29.77 43.35 29.92 43.52 30.15 40.69 31.86 37.87 33.56 35.07 35.28 31.52 37.46 30.43 39.87 31.7 42.66 33.05 45.66 36.63 46.98 40.2 45.66 43.28 44.47 46.27 43.04 49.2 41.58 50.1951 40.9138 51.5348 41.1226 52.28 42.06 56.81 46.37 61.46 50.56 66.05 54.81 67.85 56.48 68.73 57.75 67.11 59.16 65.28 60.77 64.11 60.36 62.28 58.76 61.07 57.67 57.96 54.76 57.47 54.44L57 55C58.19 56.12 59.12 57.41 60.31 58.53 61.99 60.12 62.66 61.38 61.01 62.7 59.14 64.19 58.15 63.82 56.67 62.54 55.19 61.26 53.67 59.74 52.28 58.54L51.62 59.23C52.36 60.01 53.36 61.23 54.16 61.91 55.86 63.45 56.52 64.57 55.04 66.1 53.56 67.63 52.12 67.35 50.38 65.86 49.47 65 48 63.79 47.1 63L46.55 63.48C47 64.08 50.82 67.57 49.87 68.72 49.26 69.46 47.63 70.66 46.68 70.52 45.36 70.32 43.57 69.32 43.75 67.52 43.9003 65.489 42.9202 63.5402 41.2 62.45 40.1 61.6 39.15 60.54 38.09 59.63 35.65 57.52 33.17 55.45 30.72 53.36 30.3205 53.0792 29.9635 52.7425 29.66 52.36 27.08 48.26 22.66 47.28 19.53 50.79 17.1 53.48 14.94 53.41 12.11 52.26 10.7974 51.7996 9.46234 51.4058 8.11 51.08" fill="#FFFFFF"></path><path d="M81.23 30.36 81.23 51C77.36 51.91 73.47 52.87 69.55 53.68 69.01 53.79 68.2 53.24 67.71 52.78 63.1433 48.6067 58.6 44.4133 54.08 40.2 51.64 37.94 51.22 37.86 48.26 39.2 45.7267 40.38 43.1933 41.55 40.66 42.71 40.0723 43.0109 39.4559 43.2521 38.82 43.43 36.65 43.93 34.63 43.16 34.1 41.6 33.39 39.51 34.54 38.3 36.22 37.31 40.16 35.01 44.05 32.63 47.99 30.31 52.83 27.51 57.53 27.83 61.99 31.13 62.94 31.83 63.88 32.54 64.84 33.22 66.3485 34.3323 68.3196 34.5999 70.07 33.93 73.67 32.69 77.3 31.53 81.19 30.25" fill="#FFFFFF"></path><path d="M32.5 67.57C29.15 67.1 28.5 66.44 28.1 63.29 24.54 62.87 23.93 62.29 23.54 59.22 20.39 58.7 18.84 57.41 19.03 55.45 19.21 53.69 21.95 51.24 23.83 51.17 26.05 51.09 27.23 52.37 27.62 55.29 31.08 55.68 31.7 56.23 32.23 59.37 35.72 59.96 36.28 60.48 36.76 63.62 40.22 64.23 41.14 64.99 41.06 67.18 41 69.06 38.51 71.44 36.48 71.55 34.24 71.67 33.04 70.47 32.48 67.55" fill="#FFFFFF"></path></svg>