<svg viewBox="0 0 92 92" xmlns="http://www.w3.org/2000/svg" xmlns:xlink="http://www.w3.org/1999/xlink" overflow="hidden"><defs></defs><g id="Icons"><circle cx="45.92" cy="46" r="45.66" fill="#005D48"></circle></g><g id="labels_for_icons"><path d="M16.91 46.35C16.9322 30.2675 29.9877 17.248 46.0702 17.2703 62.1527 17.2925 75.1722 30.348 75.1499 46.4305 75.1277 62.513 62.0722 75.5324 45.9897 75.5102 45.9632 75.5102 45.9366 75.5101 45.91 75.51 29.8541 75.4549 16.8768 62.4059 16.91 46.35ZM72.19 44.94C72.3 40.86 69.9 34 67.4 31.21 67.3353 31.2254 67.2718 31.2455 67.21 31.27 65.06 32.41 62.92 33.57 60.76 34.68 60.35 34.89 60.4 35.08 60.48 35.45 60.99 37.82 61.48 40.2 61.95 42.58 62.1 43.36 62.12 44.16 62.2 44.94ZM24.54 31.29C21.6859 35.3135 20.0476 40.0722 19.82 45L29.82 45C29.8521 44.9322 29.8788 44.862 29.9 44.79 30.0847 41.5578 30.6657 38.3605 31.63 35.27 31.63 35.15 31.49 34.86 31.34 34.78 29.11 33.59 26.88 32.47 24.54 31.29ZM72.25 47.84 62.41 47.84C61.81 51.25 61.22 54.6 60.64 57.91L67.49 61.54C70.344 57.5173 71.9949 52.7657 72.25 47.84ZM31.63 57.84C30.6067 54.5988 30.0182 51.2361 29.88 47.84L19.88 47.84C20.1023 52.7614 21.7605 57.51 24.65 61.5ZM34.33 56.75 44.58 55 44.58 47.87 32.82 47.87C32.867 50.8799 33.3762 53.8648 34.33 56.72ZM59.27 47.9 47.49 47.9 47.49 54.97 57.76 56.76C58.6939 53.8861 59.2026 50.8911 59.27 47.87ZM32.79 44.92 44.57 44.92 44.57 37.84 34.38 36.08C33.4433 38.9388 32.9082 41.9139 32.79 44.92ZM57.68 36.08 47.5 37.84 47.5 44.93 59.27 44.93C59.1567 41.9201 58.6214 38.9411 57.68 36.08ZM35.35 59.66C37.3936 64.5446 40.5469 68.8859 44.56 72.34L44.56 58C41.4294 58.1377 38.3316 58.6961 35.35 59.66ZM47.52 58 47.52 72.33C51.5234 68.8777 54.6666 64.5396 56.7 59.66 53.7284 58.6969 50.6407 58.1386 47.52 58ZM35.47 33.16C38.4106 34.0978 41.4655 34.6294 44.55 34.74L44.55 20.74C40.6141 24.1318 37.5079 28.3806 35.47 33.16ZM47.47 20.73 47.47 34.73C50.5583 34.6013 53.6154 34.0598 56.56 33.12 54.5211 28.355 51.4226 24.1176 47.5 20.73ZM65.7 29C62.0713 24.9108 57.246 22.0695 51.91 20.88 55.042 24.2404 57.5571 28.1265 59.34 32.36ZM32.7 32.36C34.4819 28.1283 36.9934 24.2426 40.12 20.88 34.7961 22.0716 29.9842 24.9132 26.37 29ZM52.34 71.8C57.5153 70.5835 62.1841 67.7877 65.7 63.8L59.44 60.5C57.7243 64.6385 55.3241 68.4585 52.34 71.8ZM26.34 63.8C29.8516 67.7929 34.5222 70.5897 39.7 71.8 36.7085 68.4622 34.3044 64.6414 32.59 60.5Z" fill="#FFFFFF" fill-rule="evenodd"></path></g></svg>