<svg viewBox="0 0 92 92" xmlns="http://www.w3.org/2000/svg" xmlns:xlink="http://www.w3.org/1999/xlink" id="Icons" overflow="hidden"><defs></defs><circle cx="45.88" cy="45.87" r="45.66" fill="#005D48"></circle><path d="M57.93 38.69C57.2194 38.9948 56.8905 39.818 57.1954 40.5286 57.5002 41.2391 58.3233 41.568 59.0339 41.2632 59.1019 41.234 59.1675 41.1995 59.23 41.16L72.81 34C73.5206 33.6952 73.8495 32.872 73.5446 32.1614 73.2398 31.4509 72.4166 31.122 71.7061 31.4268 71.6381 31.456 71.5725 31.4905 71.51 31.53Z" fill="#FFFFFF"></path><path d="M52.86 29.18C52.4621 29.839 52.6617 30.695 53.31 31.11 53.9662 31.5189 54.8297 31.3185 55.2386 30.6622 55.2391 30.6615 55.2395 30.6607 55.24 30.66L61.46 20.76C61.911 20.132 61.7676 19.2572 61.1396 18.8062 60.5116 18.3552 59.6368 18.4986 59.1858 19.1266 59.1506 19.1756 59.1186 19.2269 59.09 19.28Z" fill="#FFFFFF"></path><path d="M64.25 50.81C63.4768 50.7769 62.8769 50.1232 62.91 49.35 62.9431 48.5768 63.5968 47.9769 64.37 48.01L76.06 48.49C76.8329 48.4669 77.4781 49.0748 77.5011 49.8476 77.5242 50.6205 76.9164 51.2657 76.1435 51.2888 76.0756 51.2908 76.0075 51.2879 75.94 51.28Z" fill="#FFFFFF"></path><path d="M60.74 57.87 45.21 28.38C44.8565 27.709 44.026 27.4515 43.355 27.805 42.684 28.1585 42.4265 28.989 42.78 29.66L43.53 31.09 18.6 56.22C18.0406 55.7105 17.1741 55.751 16.6646 56.3105 16.2738 56.7396 16.1959 57.3684 16.47 57.88L20.8 66.09C21.1535 66.761 21.984 67.0185 22.655 66.665 23.326 66.3115 23.5835 65.481 23.23 64.81L22.94 64.26 26.64 63.54C26.64 63.92 26.64 64.34 26.64 64.75 26.6779 65.186 26.8002 65.6106 27 66 27.165 66.2991 27.3817 66.5666 27.64 66.79 28.0535 67.1583 28.5974 67.3456 29.15 67.31 29.79 67.24 32.68 66.8 35.23 66.4 36.82 66.16 38.46 65.9 38.66 65.88 39.9757 65.8086 41.0203 64.7466 41.07 63.43 41.07 62.89 40.91 61.49 40.81 60.73L57.43 57.48 58.29 59.11C58.6826 59.7633 59.5304 59.9746 60.1837 59.582 60.784 59.2212 61.0189 58.468 60.73 57.83ZM39.5 63.45C39.4485 63.9629 39.0155 64.3526 38.5 64.35 38.27 64.35 37.08 64.55 34.98 64.88 32.58 65.25 29.58 65.71 28.98 65.77 28.8541 65.7673 28.7348 65.7131 28.65 65.62 28.3732 65.3622 28.2203 64.9981 28.23 64.62 28.2055 64.147 28.2055 63.673 28.23 63.2L39.23 61.04C39.38 62 39.51 63.09 39.5 63.45ZM43.67 34.55 45.42 37.87 20.6 58.25 20 57.17Z" fill="#FFFFFF"></path></svg>