<svg viewBox="0 0 92 92" xmlns="http://www.w3.org/2000/svg" xmlns:xlink="http://www.w3.org/1999/xlink" id="Icons" overflow="hidden"><defs></defs><circle cx="45.92" cy="46.11" r="45.66" fill="#005D48"></circle><path d="M44.87 81.38C44.1656 81.3811 43.4991 81.0608 43.06 80.51 41.9629 79.7172 40.7826 79.0466 39.54 78.51 35.7494 76.9269 32.185 74.8489 28.94 72.33 22 66.58 18.5 58.68 19.49 51.23 20.053 47.7916 20.9369 44.4135 22.13 41.14 23.3615 37.8682 24.2137 34.466 24.67 31 24.99 27.54 22.4 22.33 21.37 20.61 20.7569 19.561 21.1103 18.2136 22.1593 17.6005 22.4905 17.407 22.8665 17.3034 23.25 17.3 23.4533 17.3005 23.6555 17.3308 23.85 17.39 27.4011 18.3661 31.0507 18.9397 34.73 19.1 39.1 19.1 43.53 15.95 43.57 15.92 43.9437 15.6451 44.3961 15.4978 44.86 15.5 45.3242 15.4964 45.7769 15.6438 46.15 15.92 46.15 15.92 50.62 19.1 55 19.1 58.6797 18.9439 62.3298 18.3702 65.88 17.39 66.0745 17.3308 66.2767 17.3005 66.48 17.3 67.6895 17.3011 68.6691 18.2824 68.6681 19.4919 68.6677 19.8855 68.5613 20.2718 68.36 20.61 67.36 22.33 64.74 27.54 65.06 31 65.5204 34.4609 66.3691 37.859 67.59 41.13 68.7911 44.4086 69.6784 47.7938 70.24 51.24 71.24 58.7 67.7 66.59 60.79 72.37 57.5474 74.8925 53.9826 76.9709 50.19 78.55 48.9813 79.0664 47.8259 79.6994 46.74 80.44 46.2953 81.0253 45.6051 81.3723 44.87 81.38ZM28 22.8C27.8552 22.7984 27.7181 22.8651 27.63 22.98 27.5117 23.1105 27.4804 23.2981 27.55 23.46 28.6166 25.9592 29.112 28.665 29 31.38 28.5148 35.176 27.5955 38.9037 26.26 42.49 25.1517 45.514 24.3248 48.634 23.79 51.81 23 57.76 26 64.19 31.75 69 34.6934 71.2728 37.9248 73.1457 41.36 74.57 42.475 75.0666 43.5601 75.6275 44.61 76.25 44.6876 76.3002 44.7776 76.3279 44.87 76.33 44.9577 76.327 45.0434 76.3029 45.12 76.26 46.1669 75.6354 47.2487 75.0712 48.36 74.57 51.8038 73.1443 55.0449 71.2715 58 69 63.74 64.2 66.7 57.77 65.91 51.81 65.3871 48.6367 64.5669 45.5196 63.46 42.5 62.1192 38.9106 61.1932 35.1797 60.7 31.38 60.5979 28.6647 61.0964 25.9604 62.16 23.46 62.2539 23.2062 62.1242 22.9243 61.8704 22.8304 61.8159 22.8103 61.7582 22.7999 61.7 22.8L61.61 22.8C59.4297 23.2097 57.2182 23.4305 55 23.46 51.5041 23.3041 48.1034 22.2726 45.11 20.46 45.0327 20.4202 44.9469 20.3996 44.86 20.4 44.7762 20.3996 44.6937 20.4202 44.62 20.46 41.6273 22.2742 38.2262 23.3058 34.73 23.46 32.5118 23.4301 30.3003 23.2092 28.12 22.8Z" fill="#FFFFFF"></path><path d="M39.41 45.32 45.1 42.33 50.78 45.32 49.7 38.99 54.3 34.5 47.94 33.58 45.1 27.81 42.25 33.58 35.89 34.5 40.49 38.99 39.41 45.32Z" fill="#FFFFFF"></path><path d="M28.2 57.28 30.2 48.65 32.33 49.13C34.16 49.55 34.84 50.45 34.42 52.3 34 54.15 33 54.65 31.14 54.23L30.49 54.08 29.68 57.62ZM30.77 52.86 31.35 52.99C32.35 53.22 32.68 52.99 32.92 51.99 33.16 50.99 32.92 50.59 31.92 50.37L31.34 50.24Z" fill="#FFFFFF"></path><path d="M35.91 52.06C35.9539 50.8845 36.9424 49.967 38.1179 50.0109 38.2465 50.0157 38.3744 50.0321 38.5 50.06 39.6753 50.1107 40.587 51.1045 40.5363 52.2798 40.5318 52.3839 40.5197 52.4876 40.5 52.59L40 57.16C39.9561 58.3355 38.9676 59.253 37.7921 59.2091 37.6635 59.2043 37.5356 59.1879 37.41 59.16 36.2347 59.1093 35.323 58.1155 35.3737 56.9403 35.3782 56.8361 35.3903 56.7324 35.41 56.63ZM36.91 56.75C36.83 57.4 36.99 57.75 37.6 57.82 38.21 57.89 38.44 57.6 38.52 56.94L39 52.48C39.08 51.82 38.92 51.48 38.31 51.4 37.7 51.32 37.47 51.62 37.39 52.28Z" fill="#FFFFFF"></path><path d="M41.89 59.43 42.19 50.58 43.71 50.63 43.45 58.16 45.84 58.24 45.84 59.56Z" fill="#FFFFFF"></path><path d="M47.6 59.52 47.35 50.66 48.87 50.66 49.13 59.52Z" fill="#FFFFFF"></path><path d="M54 53.19 53.92 52.51C53.85 51.76 53.47 51.51 53.08 51.51 52.47 51.57 52.31 51.91 52.38 52.57L52.84 57.04C52.91 57.7 53.14 58.04 53.75 57.93 54.36 57.82 54.45 57.54 54.39 56.93L54.28 55.86 55.79 55.71 55.9 56.71C55.9658 57.9785 54.9908 59.0603 53.7223 59.1261 52.5437 59.1873 51.51 58.3464 51.33 57.18L50.86 52.64C50.6556 51.4815 51.4291 50.3767 52.5875 50.1723 52.7039 50.1518 52.8218 50.141 52.94 50.14 54.1373 49.9688 55.2467 50.8006 55.418 51.9979 55.4332 52.1046 55.4406 52.2122 55.44 52.32L55.51 52.97Z" fill="#FFFFFF"></path><path d="M58.46 58.53 56.69 49.84 60.69 49.03 60.96 50.33 58.46 50.84 58.91 53.08 60.84 52.68 61.1 53.98 59.18 54.37 59.7 56.92 62.37 56.38 62.63 57.68Z" fill="#FFFFFF"></path></svg>