<svg viewBox="0 0 92 92" xmlns="http://www.w3.org/2000/svg" xmlns:xlink="http://www.w3.org/1999/xlink" id="Icons" overflow="hidden"><defs></defs><circle cx="46.05" cy="46.05" r="45.66" fill="#005D48"></circle><path d="M46.08 41C49.9458 41.0387 53.111 37.9361 53.1497 34.0704 53.1883 30.2045 50.0858 27.0394 46.22 27.0007 42.3542 26.962 39.189 30.0646 39.1504 33.9304 39.1501 33.9536 39.15 33.9768 39.15 34 39.1498 37.8388 42.2414 40.9616 46.08 41M46.08 73.44 42.51 66.23C38.79 58.66 35 51.11 31.3 43.51 28.4612 38.2202 28.8481 31.7817 32.3 26.87 35.4645 21.8235 41.1983 18.9856 47.13 19.53 56 20 63.86 28.16 62.62 37.18 61.95 42.1 59.53 46.45 57.36 50.83 55 55.61 52.6467 60.3567 50.3 65.07 49 67.7 47.68 70.34 46.38 73 46.32 73.11 46.26 73.22 46.11 73.47" fill="#FFFFFF"></path></svg>