<svg viewBox="0 0 92 92" xmlns="http://www.w3.org/2000/svg" xmlns:xlink="http://www.w3.org/1999/xlink" id="Icons" overflow="hidden"><defs></defs><circle cx="45.94" cy="46" r="45.66" fill="#005D48"></circle><path d="M70.31 63.38 54.92 49.73C61.2131 40.4781 58.8146 27.8764 49.5627 21.5833 40.3108 15.2902 27.7091 17.6888 21.416 26.9406 15.1229 36.1925 17.5215 48.7942 26.7733 55.0873 33.6964 59.7964 42.803 59.7617 49.69 55L63.44 70.58C64.118 71.2616 65.0386 71.6464 66 71.65 67.11 71.65 69 70.33 69.58 69.76 70.3296 68.9146 70.8253 67.8747 71.01 66.76 71.3597 65.5873 71.0967 64.3174 70.31 63.38ZM49 48.05 48.57 48.52 48 49C42.0799 54.401 32.9023 53.9801 27.5013 48.06 22.1003 42.1399 22.5212 32.9623 28.4413 27.5613 34.3614 22.1603 43.539 22.5812 48.94 28.5013 53.9942 34.0413 53.9942 42.52 48.94 48.06Z" fill="#FFFFFF"></path></svg>