<svg viewBox="0 0 92 92" xmlns="http://www.w3.org/2000/svg" xmlns:xlink="http://www.w3.org/1999/xlink" id="Icons" overflow="hidden"><defs></defs><circle cx="46.08" cy="45.87" r="45.66" fill="#005D48"></circle><path d="M63.42 47.59 41 47.59 41 55C41 60.9 43.09 63.37 46.89 63.37 50.69 63.37 52.79 60.9 52.79 55L52.79 53.87 63.42 53.87C63.23 64.71 58.75 72.13 46.86 72.13 34.69 72.13 30.31 64.33 30.31 53.13L30.31 38.13C30.31 26.9 34.69 19.13 46.86 19.13 59.03 19.13 63.42 26.93 63.42 38.13ZM52.76 38.84 52.76 36.18C52.76 30.28 50.67 27.8 46.86 27.8 43.05 27.8 41 30.28 41 36.18L41 38.84Z" fill="#FFFFFF"></path></svg>