<svg viewBox="0 0 92 92" xmlns="http://www.w3.org/2000/svg" xmlns:xlink="http://www.w3.org/1999/xlink" id="Icons" overflow="hidden"><defs></defs><circle cx="45.92" cy="45.92" r="45.66" fill="#005D48"></circle><path d="M66.89 25.69 15 25.69 15 55.5 66.89 55.5ZM22.6 48.21C21.5374 47.0116 19.7796 46.7235 18.39 47.52L18.39 33.67C20.012 34.5941 22.0759 34.0283 23 32.4064 23.5909 31.3692 23.5909 30.0972 23 29.06L37.38 29.06C33.85 30.9 31.38 35.37 31.38 40.59 31.38 45.81 33.86 50.29 37.38 52.13L23 52.13C23.724 50.8734 23.5629 49.2945 22.6 48.21ZM44.78 35 44.21 37.22C43.3334 36.7846 42.3688 36.5554 41.39 36.55 40.11 36.55 39.7 37.1 39.7 37.65 39.7 38.2 40.39 38.71 42.05 39.34 44.39 40.16 45.33 41.24 45.33 43.01 45.33 44.78 44.1 46.25 41.84 46.64L41.84 48.64 39.91 48.64 39.91 46.74C38.7519 46.7073 37.6151 46.4205 36.58 45.9L37.16 43.6C38.1604 44.148 39.2795 44.4432 40.42 44.46 41.54 44.46 42.31 44.03 42.31 43.24 42.31 42.45 41.68 42.03 40.23 41.54 38.13 40.83 36.69 39.85 36.69 37.94 36.69 36.22 37.91 34.86 40.01 34.45L40.01 32.58 41.94 32.58 41.94 34.31C42.9241 34.342 43.8909 34.5769 44.78 35ZM50.54 40.63C50.54 35.41 48.05 30.94 44.54 29.1L58.91 29.1C57.9859 30.722 58.5517 32.7859 60.1736 33.71 61.2108 34.3009 62.4828 34.3009 63.52 33.71L63.52 47.52C61.898 46.5959 59.8341 47.1617 58.91 48.7836 58.3191 49.8208 58.3191 51.0928 58.91 52.13L44.53 52.13C48.05 50.29 50.54 45.82 50.54 40.59Z" fill="#FFFFFF"></path><path d="M72.38 31.39 69.01 31.39 69.01 34.76 69.01 57.83 23.88 57.83 20.51 57.83 20.51 61.2 72.38 61.2 72.38 31.39Z" fill="#FFFFFF"></path><path d="M74.6 36.98 74.6 40.35 74.6 63.42 29.47 63.42 26.1 63.42 26.1 66.79 77.97 66.79 77.97 36.98 74.6 36.98Z" fill="#FFFFFF"></path></svg>