<svg viewBox="0 0 92 92" xmlns="http://www.w3.org/2000/svg" xmlns:xlink="http://www.w3.org/1999/xlink" id="Icons" overflow="hidden"><defs></defs><circle cx="46.05" cy="45.87" r="45.66" fill="#005D48"></circle><rect x="23.98" y="37.52" width="20.46" height="36.86" fill="#FFFFFF"></rect><rect x="49.17" y="37.52" width="20.46" height="36.86" fill="#FFFFFF"></rect><path d="M63 18.62C60.06 15.69 54.68 16.48 50.73 20.42 48 23.18 46.9 28.89 46.51 31.69 46.13 28.89 45.03 23.18 42.27 20.42 38.33 16.48 33 15.69 30 18.62 28.4798 20.2657 27.8798 22.5608 28.4 24.74 28.9006 27.081 30.0837 29.2211 31.8 30.89 35.33 34.41 43.67 35.22 44.61 35.3L46.5 35.47 48.4 35.3C49.34 35.22 57.68 34.41 61.21 30.89 62.9263 29.2211 64.1094 27.081 64.61 24.74 65.1276 22.5592 64.5237 20.2638 63 18.62ZM34.5 28.18C33.3299 27.044 32.5167 25.5913 32.16 24 31.9125 23.062 32.1198 22.0622 32.72 21.3 33.2213 20.8538 33.8803 20.6269 34.55 20.67 36.4661 20.8106 38.2555 21.6802 39.55 23.1 41.03 24.58 42.04 28.19 42.55 31.15 39.61 30.67 36 29.66 34.52 28.18ZM60.86 24C60.5006 25.5839 59.6834 27.0271 58.51 28.15 57.03 29.63 53.43 30.64 50.51 31.15 50.97 28.45 51.92 24.68 53.51 23.15 54.8045 21.7302 56.5939 20.8606 58.51 20.72 59.1797 20.6769 59.8387 20.9038 60.34 21.35 60.9163 22.1043 61.1085 23.0839 60.86 24Z" fill="#FFFFFF"></path></svg>