<svg viewBox="0 0 92 92" xmlns="http://www.w3.org/2000/svg" xmlns:xlink="http://www.w3.org/1999/xlink" overflow="hidden"><defs></defs><g id="Icons"><circle cx="45.92" cy="46" r="45.66" fill="#005D48"></circle></g><g id="labels_for_icons"><path d="M30.76 25.27C31.9695 25.2755 32.9545 24.2995 32.96 23.09 32.96 23.0834 32.96 23.0767 32.96 23.07L32.96 18.67C32.96 17.455 31.975 16.47 30.76 16.47 29.545 16.47 28.56 17.455 28.56 18.67L28.56 23.07C28.5545 24.2795 29.5305 25.2645 30.74 25.27 30.7466 25.27 30.7533 25.27 30.76 25.27Z" fill="#FFFFFF"></path><path d="M66 20.87 66 23.07C66 25.5001 64.0301 27.47 61.6 27.47 59.1699 27.47 57.2 25.5001 57.2 23.07L57.2 20.87 35.2 20.87 35.2 23.07C35.2 25.5001 33.2301 27.47 30.8 27.47 28.3699 27.47 26.4 25.5001 26.4 23.07L26.4 20.87 19.8 20.87 19.8 69.28 72.57 69.28 72.57 20.87ZM24.2 34.07 68.2 34.07 68.2 54.18 58.2 54.18 58.2 64.88 24.16 64.88Z" fill="#FFFFFF"></path><path d="M61.56 25.27C62.7695 25.2755 63.7545 24.2995 63.76 23.09 63.76 23.0834 63.76 23.0767 63.76 23.07L63.76 18.67C63.76 17.455 62.775 16.47 61.56 16.47 60.345 16.47 59.36 17.455 59.36 18.67L59.36 23.07C59.36 24.285 60.345 25.27 61.56 25.27Z" fill="#FFFFFF"></path><rect x="54.62" y="39.02" width="8.3" height="8.3" fill="#FFFFFF"></rect><rect x="29.73" y="39.02" width="8.3" height="8.3" fill="#FFFFFF"></rect><rect x="29.73" y="51.47" width="8.3" height="8.3" fill="#FFFFFF"></rect><rect x="42.18" y="39.02" width="8.3" height="8.3" fill="#FFFFFF"></rect><rect x="42.18" y="51.47" width="8.3" height="8.3" fill="#FFFFFF"></rect></g></svg>