<svg viewBox="0 0 92 92" xmlns="http://www.w3.org/2000/svg" xmlns:xlink="http://www.w3.org/1999/xlink" id="Icons" overflow="hidden"><defs></defs><circle cx="45.94" cy="45.96" r="45.66" fill="#005D48"></circle><path d="M18.49 72.66C18.1182 72.6656 17.8109 72.3716 17.8 72L17.8 69C17.8 68.6189 18.1089 68.31 18.49 68.31L73.35 68.31C73.7272 68.3155 74.03 68.6228 74.03 69L74.03 72C74.03 72.3756 73.7256 72.68 73.35 72.68ZM22.35 66.27C21.9744 66.27 21.67 65.9656 21.6699 65.5901 21.6699 65.5867 21.67 65.5834 21.67 65.58L21.67 62.58C21.67 62.2044 21.9744 61.9 22.35 61.9L69.49 61.9C69.8633 61.9054 70.1646 62.2067 70.17 62.58L70.17 65.58C70.17 65.9572 69.8672 66.2645 69.49 66.27ZM60.68 59.67C60.3126 59.6598 60.0156 59.3672 60 59L60 40.38C59.9945 39.9934 60.3034 39.6756 60.6899 39.6701 60.6933 39.67 60.6966 39.67 60.7 39.67L66.35 39.67C66.7382 39.6755 67.05 39.9917 67.05 40.38L67.05 59C67.05 59.3882 66.7382 59.7045 66.35 59.71ZM49 59.67C48.6079 59.67 48.29 59.3521 48.29 58.96L48.29 40.38C48.29 39.9879 48.6079 39.67 49 39.67L54.6 39.67C54.9921 39.67 55.31 39.9879 55.31 40.38L55.31 59C55.31 59.3921 54.9921 59.71 54.6 59.71ZM37.27 59.67C36.8834 59.67 36.57 59.3567 36.5699 58.9701 36.5699 58.9667 36.57 58.9634 36.57 58.96L36.57 40.38C36.5645 39.9934 36.8734 39.6756 37.2599 39.6701 37.2633 39.67 37.2666 39.67 37.27 39.67L42.92 39.67C43.3066 39.67 43.62 39.9833 43.6201 40.3699 43.6201 40.3733 43.62 40.3766 43.62 40.38L43.62 59C43.6227 59.1867 43.5507 59.3667 43.42 59.5 43.2865 59.6316 43.1074 59.7068 42.92 59.71ZM25.55 59.67C25.1634 59.67 24.85 59.3567 24.8499 58.9701 24.8499 58.9667 24.85 58.9634 24.85 58.96L24.85 40.38C24.8445 39.9934 25.1534 39.6756 25.5399 39.6701 25.5433 39.67 25.5466 39.67 25.55 39.67L31.2 39.67C31.5882 39.6755 31.9 39.9917 31.9 40.38L31.9 59C31.9 59.3882 31.5882 59.7045 31.2 59.71ZM22.35 37.53C21.98 37.5356 21.6756 37.2401 21.67 36.8702 21.6699 36.8634 21.6699 36.8567 21.67 36.85L21.67 33.85C21.6645 33.4745 21.9644 33.1656 22.3399 33.1601 22.3433 33.16 22.3466 33.16 22.35 33.16L69.49 33.16C69.8672 33.1655 70.17 33.4728 70.17 33.85L70.17 36.85C70.17 37.2256 69.8656 37.53 69.49 37.53ZM18.49 31C18.1145 31.0055 17.8056 30.7056 17.8001 30.3301 17.8 30.3267 17.8 30.3234 17.8 30.32L17.8 29.49C17.8 29.18 18.07 29.04 18.4 28.87L18.56 28.78 46 13.74 73.33 28.74 73.49 28.83C73.82 29 74.08 29.14 74.08 29.45L74.08 30.28C74.08 30.6572 73.7772 30.9645 73.4 30.97ZM45.92 18.52C43.2249 18.5145 41.0355 20.6949 41.03 23.39 41.0245 26.0851 43.2049 28.2745 45.9 28.28 48.5952 28.2855 50.7845 26.1051 50.79 23.41 50.79 23.4033 50.79 23.3967 50.79 23.39 50.7845 20.7027 48.6073 18.5255 45.92 18.52ZM45.92 26.24C44.346 26.24 43.07 24.964 43.07 23.39 43.07 21.816 44.346 20.54 45.92 20.54 47.494 20.54 48.77 21.816 48.77 23.39 48.7645 24.9617 47.4917 26.2345 45.92 26.24Z" fill="#FFFFFF" fill-rule="evenodd"></path></svg>