<svg viewBox="0 0 92 92" xmlns="http://www.w3.org/2000/svg" xmlns:xlink="http://www.w3.org/1999/xlink" id="Icons" overflow="hidden"><defs></defs><circle cx="46.05" cy="46.11" r="45.66" fill="#005D48"></circle><circle cx="46.96" cy="22.22" r="6.31" fill="#FFFFFF"></circle><path d="M60.88 52.7C62.34 52.31 62.32 50.61 62.02 49.7L56.88 33.5C56.7843 33.193 56.6354 32.9053 56.44 32.65 55.61 31.3 53.67 31 52 30.73L51.73 30.73 41.94 30.73 41.67 30.73C40.03 30.96 38.09 31.3 37.26 32.62 37.0646 32.8753 36.9157 33.163 36.82 33.47L31.51 50C31.0483 51.3079 31.7077 52.7462 33 53.25 34.3127 53.5804 35.6479 52.7971 36 51.49L39.56 40.49C39.56 43.57 39.56 75.08 39.56 75.08 39.5599 76.7921 40.9478 78.1801 42.6599 78.1801 42.6699 78.1801 42.68 78.1801 42.69 78.18 44.51 78.18 45.48 76.35 45.48 74.64L45.48 56.39C45.48 55.75 46.38 55.85 46.85 55.85 47.32 55.85 48.2 55.85 48.2 56.41L48.2 74.63C48.2 76.34 49.2 78.15 51.01 78.15 52.722 78.1666 54.1233 76.7922 54.1399 75.0801 54.1399 75.0701 54.14 75.0601 54.14 75.05L54.14 40.29 57.53 51.18C58.0638 52.4978 59.5367 53.1661 60.88 52.7Z" fill="#FFFFFF"></path><circle cx="66.25" cy="26.03" r="5.15" fill="#FFFFFF"></circle><path d="M78.54 48.43 74.35 35.21C74.2707 34.9579 74.149 34.7211 73.99 34.51 73.31 33.43 71.73 33.16 70.39 32.97L70.17 32.97 62.17 32.97 61.95 32.97C60.9394 33.0496 59.9558 33.3355 59.06 33.81L63.9 49.08C64.3106 50.3137 64.2245 51.6588 63.66 52.83 63.2016 53.6795 62.4188 54.3072 61.49 54.57 61.08 54.7108 60.6527 54.7949 60.22 54.82 60.22 61.96 60.22 69.13 60.22 69.13 60.2199 70.5218 61.3481 71.6501 62.7398 71.6502 62.7499 71.6502 62.7599 71.6501 62.77 71.65 64.26 71.65 65.05 70.16 65.05 68.77L65.05 53.9C65.05 53.38 65.78 53.47 66.17 53.47 66.56 53.47 67.27 53.47 67.27 53.92L67.27 68.79C67.27 70.18 68.07 71.65 69.56 71.65 70.9517 71.6666 72.0933 70.5518 72.1098 69.1602 72.1099 69.1501 72.11 69.1401 72.11 69.13L72.11 40.77 74.88 49.66C75.3161 50.7329 76.5151 51.2775 77.61 50.9 78.8 50.57 78.79 49.19 78.54 48.43Z" fill="#FFFFFF"></path><circle cx="27.49" cy="26.03" r="5.15" fill="#FFFFFF"></circle><path d="M15.2 48.43 19.39 35.21C19.4693 34.9579 19.591 34.7211 19.75 34.51 20.43 33.43 22.01 33.16 23.35 32.97L23.57 32.97 31.57 32.97 31.79 32.97C32.8003 33.051 33.7836 33.3368 34.68 33.81L29.85 49.08C29.4394 50.3137 29.5255 51.6588 30.09 52.83 30.5484 53.6795 31.3312 54.3072 32.26 54.57 32.67 54.7108 33.0973 54.7949 33.53 54.82 33.53 61.96 33.53 69.13 33.53 69.13 33.53 70.5218 32.4018 71.65 31.01 71.65 31.0067 71.65 31.0033 71.65 31 71.65 29.51 71.65 28.72 70.16 28.72 68.77L28.72 53.9C28.72 53.38 27.99 53.47 27.6 53.47 27.21 53.47 26.5 53.47 26.5 53.92L26.5 68.79C26.5 70.18 25.69 71.65 24.21 71.65 22.8183 71.6666 21.6767 70.5518 21.6602 69.1602 21.6601 69.1501 21.66 69.1401 21.66 69.13L21.66 40.77 18.89 49.66C18.45 50.7292 17.2547 51.2721 16.16 50.9 14.94 50.57 15 49.19 15.2 48.43Z" fill="#FFFFFF"></path></svg>