<svg viewBox="0 0 92 92" xmlns="http://www.w3.org/2000/svg" xmlns:xlink="http://www.w3.org/1999/xlink" id="Icons" overflow="hidden"><defs></defs><circle cx="45.99" cy="46.07" r="45.66" fill="#005D48"></circle><path d="M30.54 47C32.3016 42.1847 34.8532 37.6966 38.09 33.72L37.09 32.72C36.6944 32.2889 36.0581 32.178 35.54 32.45L17.64 41.59C16.9967 41.9212 16.7437 42.7111 17.0749 43.3543 17.2504 43.6953 17.5666 43.9423 17.94 44.03Z" fill="#FFFFFF"></path><path d="M42.62 60.21C47.5236 58.7158 52.1437 56.4142 56.29 53.4L57.29 54.4C57.7061 54.8316 57.7761 55.4906 57.46 56L47.26 73.39C46.9001 74.0176 46.0995 74.2346 45.4719 73.8747 45.1454 73.6875 44.9152 73.3688 44.84 73Z" fill="#FFFFFF"></path><path d="M32.25 48C32.94 46.46 38.55 34.34 46.81 27.39 56.67 19.09 70.33 18.45 74.28 18.45L74.89 18.45C74.72 20.69 73.21 35.87 63.35 45.56 55.64 53.12 43.04 57.56 41.44 58.1ZM55.91 29.39C52.4361 29.3871 49.6177 32.2009 49.6148 35.6748 49.6119 39.1486 52.4257 41.9671 55.8995 41.97 59.3734 41.9729 62.1919 39.1591 62.1948 35.6852 62.1961 34.1192 61.6131 32.609 60.56 31.45 59.3729 30.1342 57.6822 29.3852 55.91 29.39Z" fill="#FFFFFF"></path><path d="M16.9 71.08C16.9 71.08 25 46.48 33.65 56.46 40.51 64.34 16.9 71.08 16.9 71.08Z" fill="#FFFFFF"></path></svg>