<svg viewBox="0 0 92 92" xmlns="http://www.w3.org/2000/svg" xmlns:xlink="http://www.w3.org/1999/xlink" id="Icons" overflow="hidden"><defs></defs><circle cx="46.04" cy="46.07" r="45.66" fill="#005D48"></circle><path d="M48.09 58C46.47 57.46 43.27 52.49 41.59 49.11 39.91 45.73 37.83 40.26 38.4 38.57 38.69 37.71 41.3 37.08 42.87 36.7 44.94 36.2 45.95 35.92 46.2 35.17L46.2 35.04 46.2 34.9 45.2 20.61 45.2 20.16 44.74 20 40.56 18.6C37.89 17.7 30.34 22.67 28.88 27 28.04 29.51 25.88 38.84 33.07 53.31 40.26 67.78 49.07 71.65 51.57 72.49 55.92 73.95 64.44 70.91 65.33 68.24L66.73 64.06 66.87 63.62 66.53 63.32 55.74 53.93 55.64 53.84 55.51 53.84C54.71 53.57 53.79 54.33 52.27 55.58 51 56.56 49 58.27 48.09 58" fill="#FFFFFF"></path></svg>