<svg viewBox="0 0 92 92" xmlns="http://www.w3.org/2000/svg" xmlns:xlink="http://www.w3.org/1999/xlink" id="Icons" overflow="hidden"><defs></defs><circle cx="46.08" cy="46.05" r="45.66" fill="#005D48"></circle><path d="M25.07 51.09C28.3928 62.622 40.4349 69.2769 51.9669 65.9541 57.2455 64.4332 61.7521 60.9695 64.58 56.26L61.58 53.26C60.41 52.09 60.8 51.13 62.44 51.12L74.64 51.12 74.64 63.32C74.64 64.99 73.64 65.39 72.5 64.21L69.5 61.21C60.5707 74.2258 42.7807 77.5386 29.7648 68.6093 23.7519 64.4842 19.5431 58.2168 18 51.09Z" fill="#FFFFFF"></path><path d="M66.87 39C63.5435 27.4633 51.4945 20.8077 39.9579 24.1342 34.6637 25.6607 30.1467 29.1405 27.32 33.87L30.32 36.87C31.49 38 31.1 39 29.43 39L17.23 39 17.23 26.75C17.23 25.09 18.23 24.69 19.37 25.86L22.37 28.86C31.285 15.8277 49.0768 12.4899 62.1091 21.4049 68.1546 25.5404 72.3823 31.8386 73.92 39Z" fill="#FFFFFF"></path><circle cx="45.91" cy="36.3" r="6.19" fill="#FFFFFF"></circle><path d="M55.63 47.39C55.5356 47.0875 55.3902 46.8034 55.2 46.55 54.39 45.26 52.48 44.92 50.87 44.7L50.61 44.7 41 44.7 40.74 44.7C39.13 44.92 37.22 45.26 36.41 46.55 36.2198 46.8034 36.0744 47.0875 35.98 47.39L35.98 59.29 55.25 59.29Z" fill="#FFFFFF"></path></svg>